<svg id="e2Ji1jobcKU1" xmlns="http://www.w3.org/2000/svg" xmlns:xlink="http://www.w3.org/1999/xlink" viewBox="0 0 600 600" shape-rendering="geometricPrecision" text-rendering="geometricPrecision"><path d="M459.129227,95.848895c-90.233347,34.097742-29.600283,136.3229-75.81016,246.447166-15.26489,36.378257,42.85332,134.75987,113.987222,143.48425C591.245414,497.30169,633.124844,322.328372,692.99418,277.305868C880.800084,136.073434,597.947151,9.258055,459.129228,95.848894" transform="matrix(.881239 0.472672-.472672 0.881239-49.547627-223.485033)" fill="#ffd180" stroke="#ffd180" stroke-width="1.2"/><g style="mix-blend-mode:multiply" opacity="0.31"><path style="mix-blend-mode:multiply" d="M338.975449,143.015594q4.420145,67.712128,91.095592,67.712128c43.350901-9.952185,25.711836-51.328472,0-78.110717-58.358155-43.528031-91.974436-36.81075-91.095592,10.398589Z" transform="matrix(.668201 0 0 0.668201 127.552136 52.993125)" opacity="0.56" fill="none" stroke="#1e283d" stroke-width="1.2"/><path style="mix-blend-mode:multiply" d="M338.975449,143.015594q4.420145,67.712128,91.095592,67.712128c43.350901-9.952185,25.711836-51.328472,0-78.110717-58.358155-43.528031-91.974436-36.81075-91.095592,10.398589Z" transform="matrix(.668201 0 0 0.668201 127.552136 52.993125)" opacity="0.56" fill="none" stroke="#1e283d" stroke-width="1.2"/><path style="mix-blend-mode:multiply" d="M338.975449,143.015594q4.420145,67.712128,91.095592,67.712128c43.350901-9.952185,25.711836-51.328472,0-78.110717-58.358155-43.528031-91.974436-36.81075-91.095592,10.398589Z" transform="translate(.000001 0.000001)" opacity="0.56" fill="none" stroke="#1e283d" stroke-width="1.2"/><path style="mix-blend-mode:multiply" d="M347.780111,338.549149q13.317989-59.285786,96.659953-89.102751" transform="translate(95.19957 9.897118)" opacity="0.56" fill="none" stroke="#1e283d" stroke-width="1.2"/><path style="mix-blend-mode:multiply" d="M333.521364,353.985791q8.688681-74.722427,144.097597-138.650511" transform="translate(55.418267 9.897118)" opacity="0.56" fill="none" stroke="#1e283d" stroke-width="1.2"/><path style="mix-blend-mode:multiply" d="M357.433973,385.338078q0-127.915925,171.091415-184.507474" opacity="0.56" fill="none" stroke="#1e283d" stroke-width="1.2"/><path style="mix-blend-mode:multiply" d="M212.309926,435.144454q76.620798-52.242757,33.172522-301.266745" transform="matrix(1.230797 0 0 0.643543-129.354178 124.571659)" opacity="0.56" fill="none" stroke="#1e283d" stroke-width="1.2"/><path style="mix-blend-mode:multiply" d="M224.762659,426.839569q86.275786-58.160484,24.824885-293.595505" transform="matrix(1.786496 0 0 0.934102-245.919183 40.954208)" opacity="0.56" fill="none" stroke="#1e283d" stroke-width="1.2"/><path style="mix-blend-mode:multiply" d="M236.109467,420.180052q57.025743-71.865788,10.326061-308.169624" transform="matrix(2.202391 0 0 1.151564-288.164372-37.879368)" opacity="0.56" fill="none" stroke="#1e283d" stroke-width="1.2"/><path style="mix-blend-mode:multiply" d="M193.837991,456.33184q131.181617-46.74724,44.594232-351.678832" transform="translate(.000001 0.000001)" opacity="0.56" fill="none" stroke="#1e283d" stroke-width="1.2"/><path style="mix-blend-mode:multiply" d="M338.975449,143.015594q4.420145,67.712128,91.095592,67.712128c43.350901-9.952185,25.711836-51.328472,0-78.110717-58.358155-43.528031-91.974436-36.81075-91.095592,10.398589Z" transform="matrix(.341886 0 0 0.341886 252.996078 105.110374)" opacity="0.56" fill="none" stroke="#1e283d" stroke-width="1.2"/></g></svg>
