<svg id="visual" viewBox="0 0 1280 720" width="1280" height="720" xmlns="http://www.w3.org/2000/svg" xmlns:xlink="http://www.w3.org/1999/xlink" version="1.1"><rect width="1280" height="720" fill="#ffffff"></rect><g><g transform="translate(830 497)"><path d="M93.4 -30.9C106.1 8.6 91 56.5 55.1 84.6C19.3 112.8 -37.4 121.1 -70 97.2C-102.7 73.3 -111.4 17.1 -95.7 -26.5C-80 -70.1 -40 -101.2 0.2 -101.3C40.4 -101.3 80.8 -70.3 93.4 -30.9Z" fill="#13cf24"></path></g><g transform="translate(236 467)"><path d="M87.2 -25.6C98.7 7 83.8 50.9 52.9 73.5C22.1 96.1 -24.8 97.3 -54.6 75.5C-84.4 53.8 -97.3 9 -85.3 -24.3C-73.4 -57.6 -36.7 -79.3 0.6 -79.5C37.8 -79.7 75.7 -58.3 87.2 -25.6Z" fill="#13cf24"></path></g><g transform="translate(611 204)"><path d="M93.8 -26.5C108.3 14.1 97.6 66.9 65.1 90.9C32.5 114.9 -22 110.1 -57.3 83.4C-92.6 56.7 -108.8 8 -96 -30.1C-83.3 -68.3 -41.6 -96.1 -1 -95.8C39.7 -95.4 79.3 -67.1 93.8 -26.5Z" fill="#13cf24"></path></g><g transform="translate(1058 246)"><path d="M99.3 -36.4C112.4 8 95.5 58.1 58.8 85.9C22.2 113.7 -34.2 119.2 -70.7 93.6C-107.2 67.9 -123.8 11.1 -108.7 -36C-93.6 -83.2 -46.8 -120.8 -1.9 -120.2C43.1 -119.6 86.2 -80.8 99.3 -36.4Z" fill="#13cf24"></path></g></g></svg>