<svg viewBox="0 0 2000 1000" xmlns="http://www.w3.org/2000/svg"><mask id="b" x="0" y="0" width="2000" height="1000"><path fill="url(#a)" d="M0 0h2000v1000H0z"/></mask><g style="transform-origin:center center" mask="url(#b)"><path stroke="#8de059" stroke-width="1.37932" fill="none" d="m119.726 0 59.726 34.483v68.965l-59.726 34.483L60 103.448V34.483Z"/><path stroke="#8de059" stroke-width="1.37932" fill="#8de0598b" d="m239.726 0 59.726 34.483v68.965l-59.726 34.483L180 103.448V34.483Z"/><path stroke="#8de059" stroke-width="1.37932" fill="none" d="m359.726 0 59.726 34.483v68.965l-59.726 34.483L300 103.448V34.483ZM479.726 0l59.726 34.483v68.965l-59.726 34.483L420 103.448V34.483ZM599.726 0l59.726 34.483v68.965l-59.726 34.483L540 103.448V34.483ZM719.726 0l59.726 34.483v68.965l-59.726 34.483L660 103.448V34.483ZM839.726 0l59.726 34.483v68.965l-59.726 34.483L780 103.448V34.483ZM959.726 0l59.726 34.483v68.965l-59.726 34.483L900 103.448V34.483ZM1079.726 0l59.726 34.483v68.965l-59.726 34.483L1020 103.448V34.483ZM1199.726 0l59.726 34.483v68.965l-59.726 34.483L1140 103.448V34.483Z"/><path stroke="#8de059" stroke-width="1.37932" fill="#8de059af" d="m1319.726 0 59.726 34.483v68.965l-59.726 34.483L1260 103.448V34.483Z"/><path stroke="#8de059" stroke-width="1.37932" fill="#8de0599b" d="m1439.726 0 59.726 34.483v68.965l-59.726 34.483L1380 103.448V34.483Z"/><path stroke="#8de059" stroke-width="1.37932" fill="#8de0595b" d="m1559.726 0 59.726 34.483v68.965l-59.726 34.483L1500 103.448V34.483ZM1679.726 0l59.726 34.483v68.965l-59.726 34.483L1620 103.448V34.483Z"/><path stroke="#8de059" stroke-width="1.37932" fill="none" d="m1799.726 0 59.726 34.483v68.965l-59.726 34.483L1740 103.448V34.483ZM1919.726 0l59.726 34.483v68.965l-59.726 34.483L1860 103.448V34.483ZM2039.726 0l59.726 34.483v68.965l-59.726 34.483L1980 103.448V34.483ZM2159.726 0l59.726 34.483v68.965l-59.726 34.483L2100 103.448V34.483ZM2279.726 0l59.726 34.483v68.965l-59.726 34.483L2220 103.448V34.483Z"/><path stroke="#8de059" stroke-width="1.37932" fill="#8de0590e" d="m2399.726 0 59.726 34.483v68.965l-59.726 34.483L2340 103.448V34.483Z"/><path stroke="#8de059" stroke-width="1.37932" fill="#8de059dd" d="m59.726 103.448 59.726 34.483v68.966l-59.726 34.482L0 206.897V137.93Z"/><path stroke="#8de059" stroke-width="1.37932" fill="#8de05953" d="m179.726 103.448 59.726 34.483v68.966l-59.726 34.482L120 206.897V137.93Z"/><path stroke="#8de059" stroke-width="1.37932" fill="none" d="m299.726 103.448 59.726 34.483v68.966l-59.726 34.482L240 206.897V137.93ZM419.726 103.448l59.726 34.483v68.966l-59.726 34.482L360 206.897V137.93ZM539.726 103.448l59.726 34.483v68.966l-59.726 34.482L480 206.897V137.93ZM659.726 103.448l59.726 34.483v68.966l-59.726 34.482L600 206.897V137.93Z"/><path stroke="#8de059" stroke-width="1.37932" fill="#8de0595a" d="m779.726 103.448 59.726 34.483v68.966l-59.726 34.482L720 206.897V137.93Z"/><path stroke="#8de059" stroke-width="1.37932" fill="#8de05948" d="m899.726 103.448 59.726 34.483v68.966l-59.726 34.482L840 206.897V137.93Z"/><path stroke="#8de059" stroke-width="1.37932" fill="none" d="m1019.726 103.448 59.726 34.483v68.966l-59.726 34.482L960 206.897V137.93Z"/><path stroke="#8de059" stroke-width="1.37932" fill="#8de059cc" d="m1139.726 103.448 59.726 34.483v68.966l-59.726 34.482L1080 206.897V137.93Z"/><path stroke="#8de059" stroke-width="1.37932" fill="none" d="m1259.726 103.448 59.726 34.483v68.966l-59.726 34.482L1200 206.897V137.93ZM1379.726 103.448l59.726 34.483v68.966l-59.726 34.482L1320 206.897V137.93ZM1499.726 103.448l59.726 34.483v68.966l-59.726 34.482L1440 206.897V137.93Z"/><path stroke="#8de059" stroke-width="1.37932" fill="#8de059a2" d="m1619.726 103.448 59.726 34.483v68.966l-59.726 34.482L1560 206.897V137.93Z"/><path stroke="#8de059" stroke-width="1.37932" fill="none" d="m1739.726 103.448 59.726 34.483v68.966l-59.726 34.482L1680 206.897V137.93Z"/><path stroke="#8de059" stroke-width="1.37932" fill="#8de059b0" d="m1859.726 103.448 59.726 34.483v68.966l-59.726 34.482L1800 206.897V137.93Z"/><path stroke="#8de059" stroke-width="1.37932" fill="none" d="m1979.726 103.448 59.726 34.483v68.966l-59.726 34.482L1920 206.897V137.93ZM2099.726 103.448l59.726 34.483v68.966l-59.726 34.482L2040 206.897V137.93ZM2219.726 103.448l59.726 34.483v68.966l-59.726 34.482L2160 206.897V137.93ZM2339.726 103.448l59.726 34.483v68.966l-59.726 34.482L2280 206.897V137.93ZM119.726 206.897l59.726 34.482v68.966l-59.726 34.483L60 310.345v-68.966Z"/><path stroke="#8de059" stroke-width="1.37932" fill="#8de059dc" d="m239.726 206.897 59.726 34.482v68.966l-59.726 34.483L180 310.345v-68.966Z"/><path stroke="#8de059" stroke-width="1.37932" fill="none" d="m359.726 206.897 59.726 34.482v68.966l-59.726 34.483L300 310.345v-68.966ZM479.726 206.897l59.726 34.482v68.966l-59.726 34.483L420 310.345v-68.966ZM599.726 206.897l59.726 34.482v68.966l-59.726 34.483L540 310.345v-68.966ZM719.726 206.897l59.726 34.482v68.966l-59.726 34.483L660 310.345v-68.966ZM839.726 206.897l59.726 34.482v68.966l-59.726 34.483L780 310.345v-68.966ZM959.726 206.897l59.726 34.482v68.966l-59.726 34.483L900 310.345v-68.966ZM1079.726 206.897l59.726 34.482v68.966l-59.726 34.483L1020 310.345v-68.966ZM1199.726 206.897l59.726 34.482v68.966l-59.726 34.483L1140 310.345v-68.966Z"/><path stroke="#8de059" stroke-width="1.37932" fill="#8de059d8" d="m1319.726 206.897 59.726 34.482v68.966l-59.726 34.483L1260 310.345v-68.966Z"/><path stroke="#8de059" stroke-width="1.37932" fill="#8de05944" d="m1439.726 206.897 59.726 34.482v68.966l-59.726 34.483L1380 310.345v-68.966Z"/><path stroke="#8de059" stroke-width="1.37932" fill="none" d="m1559.726 206.897 59.726 34.482v68.966l-59.726 34.483L1500 310.345v-68.966ZM1679.726 206.897l59.726 34.482v68.966l-59.726 34.483L1620 310.345v-68.966ZM1799.726 206.897l59.726 34.482v68.966l-59.726 34.483L1740 310.345v-68.966ZM1919.726 206.897l59.726 34.482v68.966l-59.726 34.483L1860 310.345v-68.966ZM2039.726 206.897l59.726 34.482v68.966l-59.726 34.483L1980 310.345v-68.966ZM2159.726 206.897l59.726 34.482v68.966l-59.726 34.483L2100 310.345v-68.966Z"/><path stroke="#8de059" stroke-width="1.37932" fill="#8de0597c" d="m2279.726 206.897 59.726 34.482v68.966l-59.726 34.483L2220 310.345v-68.966Z"/><path stroke="#8de059" stroke-width="1.37932" fill="#8de0591a" d="m2399.726 206.897 59.726 34.482v68.966l-59.726 34.483L2340 310.345v-68.966Z"/><path stroke="#8de059" stroke-width="1.37932" fill="none" d="m59.726 310.345 59.726 34.483v68.965l-59.726 34.483L0 413.793v-68.965ZM179.726 310.345l59.726 34.483v68.965l-59.726 34.483L120 413.793v-68.965Z"/><path stroke="#8de059" stroke-width="1.37932" fill="#8de059bd" d="m299.726 310.345 59.726 34.483v68.965l-59.726 34.483L240 413.793v-68.965Z"/><path stroke="#8de059" stroke-width="1.37932" fill="none" d="m419.726 310.345 59.726 34.483v68.965l-59.726 34.483L360 413.793v-68.965Z"/><path stroke="#8de059" stroke-width="1.37932" fill="#8de059bd" d="m539.726 310.345 59.726 34.483v68.965l-59.726 34.483L480 413.793v-68.965Z"/><path stroke="#8de059" stroke-width="1.37932" fill="none" d="m659.726 310.345 59.726 34.483v68.965l-59.726 34.483L600 413.793v-68.965Z"/><path stroke="#8de059" stroke-width="1.37932" fill="#8de05937" d="m779.726 310.345 59.726 34.483v68.965l-59.726 34.483L720 413.793v-68.965Z"/><path stroke="#8de059" stroke-width="1.37932" fill="none" d="m899.726 310.345 59.726 34.483v68.965l-59.726 34.483L840 413.793v-68.965ZM1019.726 310.345l59.726 34.483v68.965l-59.726 34.483L960 413.793v-68.965Z"/><path stroke="#8de059" stroke-width="1.37932" fill="#8de05955" d="m1139.726 310.345 59.726 34.483v68.965l-59.726 34.483L1080 413.793v-68.965Z"/><path stroke="#8de059" stroke-width="1.37932" fill="none" d="m1259.726 310.345 59.726 34.483v68.965l-59.726 34.483L1200 413.793v-68.965ZM1379.726 310.345l59.726 34.483v68.965l-59.726 34.483L1320 413.793v-68.965Z"/><path stroke="#8de059" stroke-width="1.37932" fill="#8de059b8" d="m1499.726 310.345 59.726 34.483v68.965l-59.726 34.483L1440 413.793v-68.965Z"/><path stroke="#8de059" stroke-width="1.37932" fill="none" d="m1619.726 310.345 59.726 34.483v68.965l-59.726 34.483L1560 413.793v-68.965ZM1739.726 310.345l59.726 34.483v68.965l-59.726 34.483L1680 413.793v-68.965ZM1859.726 310.345l59.726 34.483v68.965l-59.726 34.483L1800 413.793v-68.965ZM1979.726 310.345l59.726 34.483v68.965l-59.726 34.483L1920 413.793v-68.965ZM2099.726 310.345l59.726 34.483v68.965l-59.726 34.483L2040 413.793v-68.965ZM2219.726 310.345l59.726 34.483v68.965l-59.726 34.483L2160 413.793v-68.965ZM2339.726 310.345l59.726 34.483v68.965l-59.726 34.483L2280 413.793v-68.965Z"/><path stroke="#8de059" stroke-width="1.37932" fill="#8de0591f" d="m119.726 413.793 59.726 34.483v68.965l-59.726 34.483L60 517.241v-68.965Z"/><path stroke="#8de059" stroke-width="1.37932" fill="#8de059fb" d="m239.726 413.793 59.726 34.483v68.965l-59.726 34.483L180 517.241v-68.965Z"/><path stroke="#8de059" stroke-width="1.37932" fill="#8de059ce" d="m359.726 413.793 59.726 34.483v68.965l-59.726 34.483L300 517.241v-68.965Z"/><path stroke="#8de059" stroke-width="1.37932" fill="none" d="m479.726 413.793 59.726 34.483v68.965l-59.726 34.483L420 517.241v-68.965ZM599.726 413.793l59.726 34.483v68.965l-59.726 34.483L540 517.241v-68.965ZM719.726 413.793l59.726 34.483v68.965l-59.726 34.483L660 517.241v-68.965ZM839.726 413.793l59.726 34.483v68.965l-59.726 34.483L780 517.241v-68.965Z"/><path stroke="#8de059" stroke-width="1.37932" fill="#8de0598f" d="m959.726 413.793 59.726 34.483v68.965l-59.726 34.483L900 517.241v-68.965Z"/><path stroke="#8de059" stroke-width="1.37932" fill="#8de059a0" d="m1079.726 413.793 59.726 34.483v68.965l-59.726 34.483L1020 517.241v-68.965Z"/><path stroke="#8de059" stroke-width="1.37932" fill="none" d="m1199.726 413.793 59.726 34.483v68.965l-59.726 34.483L1140 517.241v-68.965Z"/><path stroke="#8de059" stroke-width="1.37932" fill="#8de05947" d="m1319.726 413.793 59.726 34.483v68.965l-59.726 34.483L1260 517.241v-68.965Z"/><path stroke="#8de059" stroke-width="1.37932" fill="none" d="m1439.726 413.793 59.726 34.483v68.965l-59.726 34.483L1380 517.241v-68.965ZM1559.726 413.793l59.726 34.483v68.965l-59.726 34.483L1500 517.241v-68.965ZM1679.726 413.793l59.726 34.483v68.965l-59.726 34.483L1620 517.241v-68.965Z"/><path stroke="#8de059" stroke-width="1.37932" fill="#8de05901" d="m1799.726 413.793 59.726 34.483v68.965l-59.726 34.483L1740 517.241v-68.965Z"/><path stroke="#8de059" stroke-width="1.37932" fill="none" d="m1919.726 413.793 59.726 34.483v68.965l-59.726 34.483L1860 517.241v-68.965Z"/><path stroke="#8de059" stroke-width="1.37932" fill="#8de059c3" d="m2039.726 413.793 59.726 34.483v68.965l-59.726 34.483L1980 517.241v-68.965Z"/><path stroke="#8de059" stroke-width="1.37932" fill="none" d="m2159.726 413.793 59.726 34.483v68.965l-59.726 34.483L2100 517.241v-68.965ZM2279.726 413.793l59.726 34.483v68.965l-59.726 34.483L2220 517.241v-68.965ZM2399.726 413.793l59.726 34.483v68.965l-59.726 34.483L2340 517.241v-68.965Z"/><path stroke="#8de059" stroke-width="1.37932" fill="#8de0595b" d="m59.726 517.241 59.726 34.483v68.966l-59.726 34.482L0 620.69v-68.966Z"/><path stroke="#8de059" stroke-width="1.37932" fill="#8de059c5" d="m179.726 517.241 59.726 34.483v68.966l-59.726 34.482L120 620.69v-68.966Z"/><path stroke="#8de059" stroke-width="1.37932" fill="none" d="m299.726 517.241 59.726 34.483v68.966l-59.726 34.482L240 620.69v-68.966Z"/><path stroke="#8de059" stroke-width="1.37932" fill="#8de05938" d="m419.726 517.241 59.726 34.483v68.966l-59.726 34.482L360 620.69v-68.966Z"/><path stroke="#8de059" stroke-width="1.37932" fill="none" d="m539.726 517.241 59.726 34.483v68.966l-59.726 34.482L480 620.69v-68.966Z"/><path stroke="#8de059" stroke-width="1.37932" fill="#8de05949" d="m659.726 517.241 59.726 34.483v68.966l-59.726 34.482L600 620.69v-68.966Z"/><path stroke="#8de059" stroke-width="1.37932" fill="#8de059b6" d="m779.726 517.241 59.726 34.483v68.966l-59.726 34.482L720 620.69v-68.966Z"/><path stroke="#8de059" stroke-width="1.37932" fill="#8de059a7" d="m899.726 517.241 59.726 34.483v68.966l-59.726 34.482L840 620.69v-68.966Z"/><path stroke="#8de059" stroke-width="1.37932" fill="none" d="m1019.726 517.241 59.726 34.483v68.966l-59.726 34.482L960 620.69v-68.966ZM1139.726 517.241l59.726 34.483v68.966l-59.726 34.482L1080 620.69v-68.966ZM1259.726 517.241l59.726 34.483v68.966l-59.726 34.482L1200 620.69v-68.966Z"/><path stroke="#8de059" stroke-width="1.37932" fill="#8de059f1" d="m1379.726 517.241 59.726 34.483v68.966l-59.726 34.482L1320 620.69v-68.966Z"/><path stroke="#8de059" stroke-width="1.37932" fill="#8de0592b" d="m1499.726 517.241 59.726 34.483v68.966l-59.726 34.482L1440 620.69v-68.966Z"/><path stroke="#8de059" stroke-width="1.37932" fill="#8de0590f" d="m1619.726 517.241 59.726 34.483v68.966l-59.726 34.482L1560 620.69v-68.966Z"/><path stroke="#8de059" stroke-width="1.37932" fill="none" d="m1739.726 517.241 59.726 34.483v68.966l-59.726 34.482L1680 620.69v-68.966ZM1859.726 517.241l59.726 34.483v68.966l-59.726 34.482L1800 620.69v-68.966ZM1979.726 517.241l59.726 34.483v68.966l-59.726 34.482L1920 620.69v-68.966ZM2099.726 517.241l59.726 34.483v68.966l-59.726 34.482L2040 620.69v-68.966ZM2219.726 517.241l59.726 34.483v68.966l-59.726 34.482L2160 620.69v-68.966ZM2339.726 517.241l59.726 34.483v68.966l-59.726 34.482L2280 620.69v-68.966ZM119.726 620.69l59.726 34.482v68.966l-59.726 34.483L60 724.138v-68.966Z"/><path stroke="#8de059" stroke-width="1.37932" fill="#8de059c1" d="m239.726 620.69 59.726 34.482v68.966l-59.726 34.483L180 724.138v-68.966Z"/><path stroke="#8de059" stroke-width="1.37932" fill="none" d="m359.726 620.69 59.726 34.482v68.966l-59.726 34.483L300 724.138v-68.966ZM479.726 620.69l59.726 34.482v68.966l-59.726 34.483L420 724.138v-68.966ZM599.726 620.69l59.726 34.482v68.966l-59.726 34.483L540 724.138v-68.966ZM719.726 620.69l59.726 34.482v68.966l-59.726 34.483L660 724.138v-68.966ZM839.726 620.69l59.726 34.482v68.966l-59.726 34.483L780 724.138v-68.966ZM959.726 620.69l59.726 34.482v68.966l-59.726 34.483L900 724.138v-68.966ZM1079.726 620.69l59.726 34.482v68.966l-59.726 34.483L1020 724.138v-68.966Z"/><path stroke="#8de059" stroke-width="1.37932" fill="#8de059f1" d="m1199.726 620.69 59.726 34.482v68.966l-59.726 34.483L1140 724.138v-68.966Z"/><path stroke="#8de059" stroke-width="1.37932" fill="#8de05995" d="m1319.726 620.69 59.726 34.482v68.966l-59.726 34.483L1260 724.138v-68.966Z"/><path stroke="#8de059" stroke-width="1.37932" fill="none" d="m1439.726 620.69 59.726 34.482v68.966l-59.726 34.483L1380 724.138v-68.966ZM1559.726 620.69l59.726 34.482v68.966l-59.726 34.483L1500 724.138v-68.966ZM1679.726 620.69l59.726 34.482v68.966l-59.726 34.483L1620 724.138v-68.966ZM1799.726 620.69l59.726 34.482v68.966l-59.726 34.483L1740 724.138v-68.966ZM1919.726 620.69l59.726 34.482v68.966l-59.726 34.483L1860 724.138v-68.966ZM2039.726 620.69l59.726 34.482v68.966l-59.726 34.483L1980 724.138v-68.966Z"/><path stroke="#8de059" stroke-width="1.37932" fill="#8de05982" d="m2159.726 620.69 59.726 34.482v68.966l-59.726 34.483L2100 724.138v-68.966Z"/><path stroke="#8de059" stroke-width="1.37932" fill="none" d="m2279.726 620.69 59.726 34.482v68.966l-59.726 34.483L2220 724.138v-68.966ZM2399.726 620.69l59.726 34.482v68.966l-59.726 34.483L2340 724.138v-68.966ZM59.726 724.138l59.726 34.483v68.965L59.726 862.07 0 827.586v-68.965Z"/><path stroke="#8de059" stroke-width="1.37932" fill="#8de05931" d="m179.726 724.138 59.726 34.483v68.965l-59.726 34.483L120 827.586v-68.965Z"/><path stroke="#8de059" stroke-width="1.37932" fill="none" d="m299.726 724.138 59.726 34.483v68.965l-59.726 34.483L240 827.586v-68.965Z"/><path stroke="#8de059" stroke-width="1.37932" fill="#8de05967" d="m419.726 724.138 59.726 34.483v68.965l-59.726 34.483L360 827.586v-68.965Z"/><path stroke="#8de059" stroke-width="1.37932" fill="none" d="m539.726 724.138 59.726 34.483v68.965l-59.726 34.483L480 827.586v-68.965ZM659.726 724.138l59.726 34.483v68.965l-59.726 34.483L600 827.586v-68.965ZM779.726 724.138l59.726 34.483v68.965l-59.726 34.483L720 827.586v-68.965ZM899.726 724.138l59.726 34.483v68.965l-59.726 34.483L840 827.586v-68.965ZM1019.726 724.138l59.726 34.483v68.965l-59.726 34.483L960 827.586v-68.965ZM1139.726 724.138l59.726 34.483v68.965l-59.726 34.483L1080 827.586v-68.965ZM1259.726 724.138l59.726 34.483v68.965l-59.726 34.483L1200 827.586v-68.965Z"/><path stroke="#8de059" stroke-width="1.37932" fill="#8de05967" d="m1379.726 724.138 59.726 34.483v68.965l-59.726 34.483L1320 827.586v-68.965Z"/><path stroke="#8de059" stroke-width="1.37932" fill="#8de059dd" d="m1499.726 724.138 59.726 34.483v68.965l-59.726 34.483L1440 827.586v-68.965Z"/><path stroke="#8de059" stroke-width="1.37932" fill="none" d="m1619.726 724.138 59.726 34.483v68.965l-59.726 34.483L1560 827.586v-68.965Z"/><path stroke="#8de059" stroke-width="1.37932" fill="#8de05964" d="m1739.726 724.138 59.726 34.483v68.965l-59.726 34.483L1680 827.586v-68.965Z"/><path stroke="#8de059" stroke-width="1.37932" fill="none" d="m1859.726 724.138 59.726 34.483v68.965l-59.726 34.483L1800 827.586v-68.965Z"/><path stroke="#8de059" stroke-width="1.37932" fill="#8de05910" d="m1979.726 724.138 59.726 34.483v68.965l-59.726 34.483L1920 827.586v-68.965Z"/><path stroke="#8de059" stroke-width="1.37932" fill="none" d="m2099.726 724.138 59.726 34.483v68.965l-59.726 34.483L2040 827.586v-68.965ZM2219.726 724.138l59.726 34.483v68.965l-59.726 34.483L2160 827.586v-68.965ZM2339.726 724.138l59.726 34.483v68.965l-59.726 34.483L2280 827.586v-68.965ZM119.726 827.586l59.726 34.483v68.965l-59.726 34.483L60 931.034V862.07ZM239.726 827.586l59.726 34.483v68.965l-59.726 34.483L180 931.034V862.07ZM359.726 827.586l59.726 34.483v68.965l-59.726 34.483L300 931.034V862.07ZM479.726 827.586l59.726 34.483v68.965l-59.726 34.483L420 931.034V862.07Z"/><path stroke="#8de059" stroke-width="1.37932" fill="#8de05950" d="m599.726 827.586 59.726 34.483v68.965l-59.726 34.483L540 931.034V862.07Z"/><path stroke="#8de059" stroke-width="1.37932" fill="none" d="m719.726 827.586 59.726 34.483v68.965l-59.726 34.483L660 931.034V862.07Z"/><path stroke="#8de059" stroke-width="1.37932" fill="#8de05942" d="m839.726 827.586 59.726 34.483v68.965l-59.726 34.483L780 931.034V862.07Z"/><path stroke="#8de059" stroke-width="1.37932" fill="none" d="m959.726 827.586 59.726 34.483v68.965l-59.726 34.483L900 931.034V862.07ZM1079.726 827.586l59.726 34.483v68.965l-59.726 34.483L1020 931.034V862.07Z"/><path stroke="#8de059" stroke-width="1.37932" fill="#8de059e0" d="m1199.726 827.586 59.726 34.483v68.965l-59.726 34.483L1140 931.034V862.07Z"/><path stroke="#8de059" stroke-width="1.37932" fill="none" d="m1319.726 827.586 59.726 34.483v68.965l-59.726 34.483L1260 931.034V862.07ZM1439.726 827.586l59.726 34.483v68.965l-59.726 34.483L1380 931.034V862.07ZM1559.726 827.586l59.726 34.483v68.965l-59.726 34.483L1500 931.034V862.07ZM1679.726 827.586l59.726 34.483v68.965l-59.726 34.483L1620 931.034V862.07ZM1799.726 827.586l59.726 34.483v68.965l-59.726 34.483L1740 931.034V862.07ZM1919.726 827.586l59.726 34.483v68.965l-59.726 34.483L1860 931.034V862.07ZM2039.726 827.586l59.726 34.483v68.965l-59.726 34.483L1980 931.034V862.07ZM2159.726 827.586l59.726 34.483v68.965l-59.726 34.483L2100 931.034V862.07ZM2279.726 827.586l59.726 34.483v68.965l-59.726 34.483L2220 931.034V862.07ZM2399.726 827.586l59.726 34.483v68.965l-59.726 34.483L2340 931.034V862.07ZM59.726 931.034l59.726 34.483v68.966l-59.726 34.483L0 1034.483v-68.966ZM179.726 931.034l59.726 34.483v68.966l-59.726 34.483L120 1034.483v-68.966ZM299.726 931.034l59.726 34.483v68.966l-59.726 34.483L240 1034.483v-68.966ZM419.726 931.034l59.726 34.483v68.966l-59.726 34.483L360 1034.483v-68.966ZM539.726 931.034l59.726 34.483v68.966l-59.726 34.483L480 1034.483v-68.966ZM659.726 931.034l59.726 34.483v68.966l-59.726 34.483L600 1034.483v-68.966ZM779.726 931.034l59.726 34.483v68.966l-59.726 34.483L720 1034.483v-68.966ZM899.726 931.034l59.726 34.483v68.966l-59.726 34.483L840 1034.483v-68.966ZM1019.726 931.034l59.726 34.483v68.966l-59.726 34.483L960 1034.483v-68.966ZM1139.726 931.034l59.726 34.483v68.966l-59.726 34.483-59.726-34.483v-68.966ZM1259.726 931.034l59.726 34.483v68.966l-59.726 34.483-59.726-34.483v-68.966Z"/><path stroke="#8de059" stroke-width="1.37932" fill="#8de059c9" d="m1379.726 931.034 59.726 34.483v68.966l-59.726 34.483-59.726-34.483v-68.966Z"/><path stroke="#8de059" stroke-width="1.37932" fill="none" d="m1499.726 931.034 59.726 34.483v68.966l-59.726 34.483-59.726-34.483v-68.966ZM1619.726 931.034l59.726 34.483v68.966l-59.726 34.483-59.726-34.483v-68.966ZM1739.726 931.034l59.726 34.483v68.966l-59.726 34.483-59.726-34.483v-68.966ZM1859.726 931.034l59.726 34.483v68.966l-59.726 34.483-59.726-34.483v-68.966ZM1979.726 931.034l59.726 34.483v68.966l-59.726 34.483-59.726-34.483v-68.966ZM2099.726 931.034l59.726 34.483v68.966l-59.726 34.483-59.726-34.483v-68.966ZM2219.726 931.034l59.726 34.483v68.966l-59.726 34.483-59.726-34.483v-68.966ZM2339.726 931.034l59.726 34.483v68.966l-59.726 34.483-59.726-34.483v-68.966Z"/><path stroke="#8de059" stroke-width="1.37932" fill="#8de0593f" d="m119.726 1034.483 59.726 34.483v68.965l-59.726 34.483L60 1137.93v-68.965Z"/><path stroke="#8de059" stroke-width="1.37932" fill="#8de05978" d="m239.726 1034.483 59.726 34.483v68.965l-59.726 34.483L180 1137.93v-68.965Z"/><path stroke="#8de059" stroke-width="1.37932" fill="none" d="m359.726 1034.483 59.726 34.483v68.965l-59.726 34.483L300 1137.93v-68.965ZM479.726 1034.483l59.726 34.483v68.965l-59.726 34.483L420 1137.93v-68.965ZM599.726 1034.483l59.726 34.483v68.965l-59.726 34.483L540 1137.93v-68.965ZM719.726 1034.483l59.726 34.483v68.965l-59.726 34.483L660 1137.93v-68.965Z"/><path stroke="#8de059" stroke-width="1.37932" fill="#8de0591c" d="m839.726 1034.483 59.726 34.483v68.965l-59.726 34.483L780 1137.93v-68.965Z"/><path stroke="#8de059" stroke-width="1.37932" fill="none" d="m959.726 1034.483 59.726 34.483v68.965l-59.726 34.483L900 1137.93v-68.965Z"/><path stroke="#8de059" stroke-width="1.37932" fill="#8de0595c" d="m1079.726 1034.483 59.726 34.483v68.965l-59.726 34.483L1020 1137.93v-68.965Z"/><path stroke="#8de059" stroke-width="1.37932" fill="none" d="m1199.726 1034.483 59.726 34.483v68.965l-59.726 34.483L1140 1137.93v-68.965ZM1319.726 1034.483l59.726 34.483v68.965l-59.726 34.483L1260 1137.93v-68.965ZM1439.726 1034.483l59.726 34.483v68.965l-59.726 34.483L1380 1137.93v-68.965Z"/><path stroke="#8de059" stroke-width="1.37932" fill="#8de05967" d="m1559.726 1034.483 59.726 34.483v68.965l-59.726 34.483L1500 1137.93v-68.965Z"/><path stroke="#8de059" stroke-width="1.37932" fill="none" d="m1679.726 1034.483 59.726 34.483v68.965l-59.726 34.483L1620 1137.93v-68.965Z"/><path stroke="#8de059" stroke-width="1.37932" fill="#8de0595c" d="m1799.726 1034.483 59.726 34.483v68.965l-59.726 34.483L1740 1137.93v-68.965Z"/><path stroke="#8de059" stroke-width="1.37932" fill="none" d="m1919.726 1034.483 59.726 34.483v68.965l-59.726 34.483L1860 1137.93v-68.965ZM2039.726 1034.483l59.726 34.483v68.965l-59.726 34.483L1980 1137.93v-68.965ZM2159.726 1034.483l59.726 34.483v68.965l-59.726 34.483L2100 1137.93v-68.965ZM2279.726 1034.483l59.726 34.483v68.965l-59.726 34.483L2220 1137.93v-68.965ZM2399.726 1034.483l59.726 34.483v68.965l-59.726 34.483L2340 1137.93v-68.965ZM59.726 1137.931l59.726 34.483v68.965l-59.726 34.483L0 1241.38v-68.965Z"/><path stroke="#8de059" stroke-width="1.37932" fill="#8de059e4" d="m179.726 1137.931 59.726 34.483v68.965l-59.726 34.483L120 1241.38v-68.965Z"/><path stroke="#8de059" stroke-width="1.37932" fill="#8de05917" d="m299.726 1137.931 59.726 34.483v68.965l-59.726 34.483L240 1241.38v-68.965Z"/><path stroke="#8de059" stroke-width="1.37932" fill="none" d="m419.726 1137.931 59.726 34.483v68.965l-59.726 34.483L360 1241.38v-68.965Z"/><path stroke="#8de059" stroke-width="1.37932" fill="#8de0599b" d="m539.726 1137.931 59.726 34.483v68.965l-59.726 34.483L480 1241.38v-68.965Z"/><path stroke="#8de059" stroke-width="1.37932" fill="none" d="m659.726 1137.931 59.726 34.483v68.965l-59.726 34.483L600 1241.38v-68.965ZM779.726 1137.931l59.726 34.483v68.965l-59.726 34.483L720 1241.38v-68.965ZM899.726 1137.931l59.726 34.483v68.965l-59.726 34.483L840 1241.38v-68.965Z"/><path stroke="#8de059" stroke-width="1.37932" fill="#8de059cd" d="m1019.726 1137.931 59.726 34.483v68.965l-59.726 34.483L960 1241.38v-68.965Z"/><path stroke="#8de059" stroke-width="1.37932" fill="#8de05918" d="m1139.726 1137.931 59.726 34.483v68.965l-59.726 34.483L1080 1241.38v-68.965Z"/><path stroke="#8de059" stroke-width="1.37932" fill="none" d="m1259.726 1137.931 59.726 34.483v68.965l-59.726 34.483L1200 1241.38v-68.965ZM1379.726 1137.931l59.726 34.483v68.965l-59.726 34.483L1320 1241.38v-68.965Z"/><path stroke="#8de059" stroke-width="1.37932" fill="#8de05930" d="m1499.726 1137.931 59.726 34.483v68.965l-59.726 34.483L1440 1241.38v-68.965Z"/><path stroke="#8de059" stroke-width="1.37932" fill="none" d="m1619.726 1137.931 59.726 34.483v68.965l-59.726 34.483L1560 1241.38v-68.965ZM1739.726 1137.931l59.726 34.483v68.965l-59.726 34.483L1680 1241.38v-68.965ZM1859.726 1137.931l59.726 34.483v68.965l-59.726 34.483L1800 1241.38v-68.965Z"/><path stroke="#8de059" stroke-width="1.37932" fill="#8de059ec" d="m1979.726 1137.931 59.726 34.483v68.965l-59.726 34.483L1920 1241.38v-68.965Z"/><path stroke="#8de059" stroke-width="1.37932" fill="none" d="m2099.726 1137.931 59.726 34.483v68.965l-59.726 34.483L2040 1241.38v-68.965ZM2219.726 1137.931l59.726 34.483v68.965l-59.726 34.483L2160 1241.38v-68.965ZM2339.726 1137.931l59.726 34.483v68.965l-59.726 34.483L2280 1241.38v-68.965Z"/><path stroke="#8de059" stroke-width="1.37932" fill="#8de0591a" d="m119.726 1241.38 59.726 34.482v68.966l-59.726 34.482L60 1344.828v-68.966Z"/><path stroke="#8de059" stroke-width="1.37932" fill="none" d="m239.726 1241.38 59.726 34.482v68.966l-59.726 34.482L180 1344.828v-68.966Z"/><path stroke="#8de059" stroke-width="1.37932" fill="#8de05930" d="m359.726 1241.38 59.726 34.482v68.966l-59.726 34.482L300 1344.828v-68.966Z"/><path stroke="#8de059" stroke-width="1.37932" fill="none" d="m479.726 1241.38 59.726 34.482v68.966l-59.726 34.482L420 1344.828v-68.966ZM599.726 1241.38l59.726 34.482v68.966l-59.726 34.482L540 1344.828v-68.966Z"/><path stroke="#8de059" stroke-width="1.37932" fill="#8de05969" d="m719.726 1241.38 59.726 34.482v68.966l-59.726 34.482L660 1344.828v-68.966Z"/><path stroke="#8de059" stroke-width="1.37932" fill="none" d="m839.726 1241.38 59.726 34.482v68.966l-59.726 34.482L780 1344.828v-68.966ZM959.726 1241.38l59.726 34.482v68.966l-59.726 34.482L900 1344.828v-68.966ZM1079.726 1241.38l59.726 34.482v68.966l-59.726 34.482-59.726-34.482v-68.966ZM1199.726 1241.38l59.726 34.482v68.966l-59.726 34.482-59.726-34.482v-68.966ZM1319.726 1241.38l59.726 34.482v68.966l-59.726 34.482-59.726-34.482v-68.966ZM1439.726 1241.38l59.726 34.482v68.966l-59.726 34.482-59.726-34.482v-68.966Z"/><path stroke="#8de059" stroke-width="1.37932" fill="#8de059bd" d="m1559.726 1241.38 59.726 34.482v68.966l-59.726 34.482-59.726-34.482v-68.966Z"/><path stroke="#8de059" stroke-width="1.37932" fill="#8de05932" d="m1679.726 1241.38 59.726 34.482v68.966l-59.726 34.482-59.726-34.482v-68.966Z"/><path stroke="#8de059" stroke-width="1.37932" fill="#8de05996" d="m1799.726 1241.38 59.726 34.482v68.966l-59.726 34.482-59.726-34.482v-68.966Z"/><path stroke="#8de059" stroke-width="1.37932" fill="none" d="m1919.726 1241.38 59.726 34.482v68.966l-59.726 34.482-59.726-34.482v-68.966Z"/><path stroke="#8de059" stroke-width="1.37932" fill="#8de059f4" d="m2039.726 1241.38 59.726 34.482v68.966l-59.726 34.482-59.726-34.482v-68.966Z"/><path stroke="#8de059" stroke-width="1.37932" fill="#8de0591c" d="m2159.726 1241.38 59.726 34.482v68.966l-59.726 34.482-59.726-34.482v-68.966Z"/><path stroke="#8de059" stroke-width="1.37932" fill="#8de059f0" d="m2279.726 1241.38 59.726 34.482v68.966l-59.726 34.482-59.726-34.482v-68.966Z"/><path stroke="#8de059" stroke-width="1.37932" fill="none" d="m2399.726 1241.38 59.726 34.482v68.966l-59.726 34.482-59.726-34.482v-68.966ZM59.726 1344.828l59.726 34.482v68.966l-59.726 34.483L0 1448.276v-68.966ZM179.726 1344.828l59.726 34.482v68.966l-59.726 34.483L120 1448.276v-68.966ZM299.726 1344.828l59.726 34.482v68.966l-59.726 34.483L240 1448.276v-68.966ZM419.726 1344.828l59.726 34.482v68.966l-59.726 34.483L360 1448.276v-68.966ZM539.726 1344.828l59.726 34.482v68.966l-59.726 34.483L480 1448.276v-68.966Z"/><path stroke="#8de059" stroke-width="1.37932" fill="#8de059e7" d="m659.726 1344.828 59.726 34.482v68.966l-59.726 34.483L600 1448.276v-68.966Z"/><path stroke="#8de059" stroke-width="1.37932" fill="none" d="m779.726 1344.828 59.726 34.482v68.966l-59.726 34.483L720 1448.276v-68.966Z"/><path stroke="#8de059" stroke-width="1.37932" fill="#8de05905" d="m899.726 1344.828 59.726 34.482v68.966l-59.726 34.483L840 1448.276v-68.966Z"/><path stroke="#8de059" stroke-width="1.37932" fill="none" d="m1019.726 1344.828 59.726 34.482v68.966l-59.726 34.483L960 1448.276v-68.966Z"/><path stroke="#8de059" stroke-width="1.37932" fill="#8de0594c" d="m1139.726 1344.828 59.726 34.482v68.966l-59.726 34.483-59.726-34.483v-68.966Z"/><path stroke="#8de059" stroke-width="1.37932" fill="none" d="m1259.726 1344.828 59.726 34.482v68.966l-59.726 34.483-59.726-34.483v-68.966Z"/><path stroke="#8de059" stroke-width="1.37932" fill="#8de059f2" d="m1379.726 1344.828 59.726 34.482v68.966l-59.726 34.483-59.726-34.483v-68.966Z"/><path stroke="#8de059" stroke-width="1.37932" fill="#8de059d5" d="m1499.726 1344.828 59.726 34.482v68.966l-59.726 34.483-59.726-34.483v-68.966Z"/><path stroke="#8de059" stroke-width="1.37932" fill="none" d="m1619.726 1344.828 59.726 34.482v68.966l-59.726 34.483-59.726-34.483v-68.966ZM1739.726 1344.828l59.726 34.482v68.966l-59.726 34.483-59.726-34.483v-68.966ZM1859.726 1344.828l59.726 34.482v68.966l-59.726 34.483-59.726-34.483v-68.966Z"/><path stroke="#8de059" stroke-width="1.37932" fill="#8de05994" d="m1979.726 1344.828 59.726 34.482v68.966l-59.726 34.483-59.726-34.483v-68.966Z"/><path stroke="#8de059" stroke-width="1.37932" fill="none" d="m2099.726 1344.828 59.726 34.482v68.966l-59.726 34.483-59.726-34.483v-68.966ZM2219.726 1344.828l59.726 34.482v68.966l-59.726 34.483-59.726-34.483v-68.966ZM2339.726 1344.828l59.726 34.482v68.966l-59.726 34.483-59.726-34.483v-68.966Z"/><path stroke="#8de059" stroke-width="1.37932" fill="#8de059a9" d="m119.726 1448.276 59.726 34.483v68.965l-59.726 34.483L60 1551.724v-68.965Z"/><path stroke="#8de059" stroke-width="1.37932" fill="none" d="m239.726 1448.276 59.726 34.483v68.965l-59.726 34.483L180 1551.724v-68.965Z"/><path stroke="#8de059" stroke-width="1.37932" fill="#8de05930" d="m359.726 1448.276 59.726 34.483v68.965l-59.726 34.483L300 1551.724v-68.965Z"/><path stroke="#8de059" stroke-width="1.37932" fill="none" d="m479.726 1448.276 59.726 34.483v68.965l-59.726 34.483L420 1551.724v-68.965Z"/><path stroke="#8de059" stroke-width="1.37932" fill="#8de05904" d="m599.726 1448.276 59.726 34.483v68.965l-59.726 34.483L540 1551.724v-68.965Z"/><path stroke="#8de059" stroke-width="1.37932" fill="none" d="m719.726 1448.276 59.726 34.483v68.965l-59.726 34.483L660 1551.724v-68.965ZM839.726 1448.276l59.726 34.483v68.965l-59.726 34.483L780 1551.724v-68.965ZM959.726 1448.276l59.726 34.483v68.965l-59.726 34.483L900 1551.724v-68.965Z"/><path stroke="#8de059" stroke-width="1.37932" fill="#8de05986" d="m1079.726 1448.276 59.726 34.483v68.965l-59.726 34.483-59.726-34.483v-68.965Z"/><path stroke="#8de059" stroke-width="1.37932" fill="none" d="m1199.726 1448.276 59.726 34.483v68.965l-59.726 34.483-59.726-34.483v-68.965ZM1319.726 1448.276l59.726 34.483v68.965l-59.726 34.483-59.726-34.483v-68.965ZM1439.726 1448.276l59.726 34.483v68.965l-59.726 34.483-59.726-34.483v-68.965ZM1559.726 1448.276l59.726 34.483v68.965l-59.726 34.483-59.726-34.483v-68.965ZM1679.726 1448.276l59.726 34.483v68.965l-59.726 34.483-59.726-34.483v-68.965Z"/><path stroke="#8de059" stroke-width="1.37932" fill="#8de05916" d="m1799.726 1448.276 59.726 34.483v68.965l-59.726 34.483-59.726-34.483v-68.965Z"/><path stroke="#8de059" stroke-width="1.37932" fill="none" d="m1919.726 1448.276 59.726 34.483v68.965l-59.726 34.483-59.726-34.483v-68.965ZM2039.726 1448.276l59.726 34.483v68.965l-59.726 34.483-59.726-34.483v-68.965ZM2159.726 1448.276l59.726 34.483v68.965l-59.726 34.483-59.726-34.483v-68.965ZM2279.726 1448.276l59.726 34.483v68.965l-59.726 34.483-59.726-34.483v-68.965Z"/><path stroke="#8de059" stroke-width="1.37932" fill="#8de05902" d="m2399.726 1448.276 59.726 34.483v68.965l-59.726 34.483-59.726-34.483v-68.965Z"/><path stroke="#8de059" stroke-width="1.37932" fill="none" d="m59.726 1551.724 59.726 34.483v68.965l-59.726 34.483L0 1655.172v-68.965Z"/><path stroke="#8de059" stroke-width="1.37932" fill="#8de059ac" d="m179.726 1551.724 59.726 34.483v68.965l-59.726 34.483L120 1655.172v-68.965Z"/><path stroke="#8de059" stroke-width="1.37932" fill="none" d="m299.726 1551.724 59.726 34.483v68.965l-59.726 34.483L240 1655.172v-68.965ZM419.726 1551.724l59.726 34.483v68.965l-59.726 34.483L360 1655.172v-68.965ZM539.726 1551.724l59.726 34.483v68.965l-59.726 34.483L480 1655.172v-68.965ZM659.726 1551.724l59.726 34.483v68.965l-59.726 34.483L600 1655.172v-68.965ZM779.726 1551.724l59.726 34.483v68.965l-59.726 34.483L720 1655.172v-68.965ZM899.726 1551.724l59.726 34.483v68.965l-59.726 34.483L840 1655.172v-68.965ZM1019.726 1551.724l59.726 34.483v68.965l-59.726 34.483L960 1655.172v-68.965ZM1139.726 1551.724l59.726 34.483v68.965l-59.726 34.483-59.726-34.483v-68.965ZM1259.726 1551.724l59.726 34.483v68.965l-59.726 34.483-59.726-34.483v-68.965ZM1379.726 1551.724l59.726 34.483v68.965l-59.726 34.483-59.726-34.483v-68.965Z"/><path stroke="#8de059" stroke-width="1.37932" fill="#8de0598c" d="m1499.726 1551.724 59.726 34.483v68.965l-59.726 34.483-59.726-34.483v-68.965Z"/><path stroke="#8de059" stroke-width="1.37932" fill="none" d="m1619.726 1551.724 59.726 34.483v68.965l-59.726 34.483-59.726-34.483v-68.965Z"/><path stroke="#8de059" stroke-width="1.37932" fill="#8de0595e" d="m1739.726 1551.724 59.726 34.483v68.965l-59.726 34.483-59.726-34.483v-68.965Z"/><path stroke="#8de059" stroke-width="1.37932" fill="none" d="m1859.726 1551.724 59.726 34.483v68.965l-59.726 34.483-59.726-34.483v-68.965ZM1979.726 1551.724l59.726 34.483v68.965l-59.726 34.483-59.726-34.483v-68.965Z"/><path stroke="#8de059" stroke-width="1.37932" fill="#8de059c1" d="m2099.726 1551.724 59.726 34.483v68.965l-59.726 34.483-59.726-34.483v-68.965Z"/><path stroke="#8de059" stroke-width="1.37932" fill="none" d="m2219.726 1551.724 59.726 34.483v68.965l-59.726 34.483-59.726-34.483v-68.965ZM2339.726 1551.724l59.726 34.483v68.965l-59.726 34.483-59.726-34.483v-68.965ZM119.726 1655.172l59.726 34.483v68.966l-59.726 34.482L60 1758.621v-68.966Z"/><path stroke="#8de059" stroke-width="1.37932" fill="#8de05963" d="m239.726 1655.172 59.726 34.483v68.966l-59.726 34.482L180 1758.621v-68.966Z"/><path stroke="#8de059" stroke-width="1.37932" fill="none" d="m359.726 1655.172 59.726 34.483v68.966l-59.726 34.482L300 1758.621v-68.966ZM479.726 1655.172l59.726 34.483v68.966l-59.726 34.482L420 1758.621v-68.966Z"/><path stroke="#8de059" stroke-width="1.37932" fill="#8de05977" d="m599.726 1655.172 59.726 34.483v68.966l-59.726 34.482L540 1758.621v-68.966Z"/><path stroke="#8de059" stroke-width="1.37932" fill="none" d="m719.726 1655.172 59.726 34.483v68.966l-59.726 34.482L660 1758.621v-68.966ZM839.726 1655.172l59.726 34.483v68.966l-59.726 34.482L780 1758.621v-68.966ZM959.726 1655.172l59.726 34.483v68.966l-59.726 34.482L900 1758.621v-68.966ZM1079.726 1655.172l59.726 34.483v68.966l-59.726 34.482-59.726-34.482v-68.966ZM1199.726 1655.172l59.726 34.483v68.966l-59.726 34.482-59.726-34.482v-68.966ZM1319.726 1655.172l59.726 34.483v68.966l-59.726 34.482-59.726-34.482v-68.966Z"/><path stroke="#8de059" stroke-width="1.37932" fill="#8de059c6" d="m1439.726 1655.172 59.726 34.483v68.966l-59.726 34.482-59.726-34.482v-68.966Z"/><path stroke="#8de059" stroke-width="1.37932" fill="none" d="m1559.726 1655.172 59.726 34.483v68.966l-59.726 34.482-59.726-34.482v-68.966ZM1679.726 1655.172l59.726 34.483v68.966l-59.726 34.482-59.726-34.482v-68.966Z"/><path stroke="#8de059" stroke-width="1.37932" fill="#8de05901" d="m1799.726 1655.172 59.726 34.483v68.966l-59.726 34.482-59.726-34.482v-68.966Z"/><path stroke="#8de059" stroke-width="1.37932" fill="#8de0590b" d="m1919.726 1655.172 59.726 34.483v68.966l-59.726 34.482-59.726-34.482v-68.966Z"/><path stroke="#8de059" stroke-width="1.37932" fill="#8de059bd" d="m2039.726 1655.172 59.726 34.483v68.966l-59.726 34.482-59.726-34.482v-68.966Z"/><path stroke="#8de059" stroke-width="1.37932" fill="none" d="m2159.726 1655.172 59.726 34.483v68.966l-59.726 34.482-59.726-34.482v-68.966Z"/><path stroke="#8de059" stroke-width="1.37932" fill="#8de0591c" d="m2279.726 1655.172 59.726 34.483v68.966l-59.726 34.482-59.726-34.482v-68.966Z"/><path stroke="#8de059" stroke-width="1.37932" fill="#8de05991" d="m2399.726 1655.172 59.726 34.483v68.966l-59.726 34.482-59.726-34.482v-68.966Z"/><path stroke="#8de059" stroke-width="1.37932" fill="none" d="m59.726 1758.62 59.726 34.483v68.966l-59.726 34.483L0 1862.069v-68.966ZM179.726 1758.62l59.726 34.483v68.966l-59.726 34.483L120 1862.069v-68.966ZM299.726 1758.62l59.726 34.483v68.966l-59.726 34.483L240 1862.069v-68.966ZM419.726 1758.62l59.726 34.483v68.966l-59.726 34.483L360 1862.069v-68.966ZM539.726 1758.62l59.726 34.483v68.966l-59.726 34.483L480 1862.069v-68.966ZM659.726 1758.62l59.726 34.483v68.966l-59.726 34.483L600 1862.069v-68.966Z"/><path stroke="#8de059" stroke-width="1.37932" fill="#8de059d3" d="m779.726 1758.62 59.726 34.483v68.966l-59.726 34.483L720 1862.069v-68.966Z"/><path stroke="#8de059" stroke-width="1.37932" fill="none" d="m899.726 1758.62 59.726 34.483v68.966l-59.726 34.483L840 1862.069v-68.966ZM1019.726 1758.62l59.726 34.483v68.966l-59.726 34.483L960 1862.069v-68.966Z"/><path stroke="#8de059" stroke-width="1.37932" fill="#8de05956" d="m1139.726 1758.62 59.726 34.483v68.966l-59.726 34.483-59.726-34.483v-68.966Z"/><path stroke="#8de059" stroke-width="1.37932" fill="none" d="m1259.726 1758.62 59.726 34.483v68.966l-59.726 34.483-59.726-34.483v-68.966ZM1379.726 1758.62l59.726 34.483v68.966l-59.726 34.483-59.726-34.483v-68.966ZM1499.726 1758.62l59.726 34.483v68.966l-59.726 34.483-59.726-34.483v-68.966Z"/><path stroke="#8de059" stroke-width="1.37932" fill="#8de05984" d="m1619.726 1758.62 59.726 34.483v68.966l-59.726 34.483-59.726-34.483v-68.966Z"/><path stroke="#8de059" stroke-width="1.37932" fill="none" d="m1739.726 1758.62 59.726 34.483v68.966l-59.726 34.483-59.726-34.483v-68.966Z"/><path stroke="#8de059" stroke-width="1.37932" fill="#8de059cd" d="m1859.726 1758.62 59.726 34.483v68.966l-59.726 34.483-59.726-34.483v-68.966Z"/><path stroke="#8de059" stroke-width="1.37932" fill="none" d="m1979.726 1758.62 59.726 34.483v68.966l-59.726 34.483-59.726-34.483v-68.966ZM2099.726 1758.62l59.726 34.483v68.966l-59.726 34.483-59.726-34.483v-68.966ZM2219.726 1758.62l59.726 34.483v68.966l-59.726 34.483-59.726-34.483v-68.966ZM2339.726 1758.62l59.726 34.483v68.966l-59.726 34.483-59.726-34.483v-68.966ZM119.726 1862.069l59.726 34.483v68.965L119.726 2000 60 1965.517v-68.965ZM239.726 1862.069l59.726 34.483v68.965L239.726 2000 180 1965.517v-68.965ZM359.726 1862.069l59.726 34.483v68.965L359.726 2000 300 1965.517v-68.965ZM479.726 1862.069l59.726 34.483v68.965L479.726 2000 420 1965.517v-68.965ZM599.726 1862.069l59.726 34.483v68.965L599.726 2000 540 1965.517v-68.965Z"/><path stroke="#8de059" stroke-width="1.37932" fill="#8de059ac" d="m719.726 1862.069 59.726 34.483v68.965L719.726 2000 660 1965.517v-68.965Z"/><path stroke="#8de059" stroke-width="1.37932" fill="none" d="m839.726 1862.069 59.726 34.483v68.965L839.726 2000 780 1965.517v-68.965ZM959.726 1862.069l59.726 34.483v68.965L959.726 2000 900 1965.517v-68.965ZM1079.726 1862.069l59.726 34.483v68.965L1079.726 2000 1020 1965.517v-68.965Z"/><path stroke="#8de059" stroke-width="1.37932" fill="#8de0596f" d="m1199.726 1862.069 59.726 34.483v68.965L1199.726 2000 1140 1965.517v-68.965Z"/><path stroke="#8de059" stroke-width="1.37932" fill="#8de059ec" d="m1319.726 1862.069 59.726 34.483v68.965L1319.726 2000 1260 1965.517v-68.965Z"/><path stroke="#8de059" stroke-width="1.37932" fill="none" d="m1439.726 1862.069 59.726 34.483v68.965L1439.726 2000 1380 1965.517v-68.965Z"/><path stroke="#8de059" stroke-width="1.37932" fill="#8de059f6" d="m1559.726 1862.069 59.726 34.483v68.965L1559.726 2000 1500 1965.517v-68.965Z"/><path stroke="#8de059" stroke-width="1.37932" fill="none" d="m1679.726 1862.069 59.726 34.483v68.965L1679.726 2000 1620 1965.517v-68.965ZM1799.726 1862.069l59.726 34.483v68.965L1799.726 2000 1740 1965.517v-68.965Z"/><path stroke="#8de059" stroke-width="1.37932" fill="#8de05925" d="m1919.726 1862.069 59.726 34.483v68.965L1919.726 2000 1860 1965.517v-68.965Z"/><path stroke="#8de059" stroke-width="1.37932" fill="none" d="m2039.726 1862.069 59.726 34.483v68.965L2039.726 2000 1980 1965.517v-68.965ZM2159.726 1862.069l59.726 34.483v68.965L2159.726 2000 2100 1965.517v-68.965ZM2279.726 1862.069l59.726 34.483v68.965L2279.726 2000 2220 1965.517v-68.965ZM2399.726 1862.069l59.726 34.483v68.965L2399.726 2000 2340 1965.517v-68.965ZM59.726 1965.517 119.452 2000v68.966l-59.726 34.482L0 2068.966V2000ZM179.726 1965.517 239.452 2000v68.966l-59.726 34.482L120 2068.966V2000ZM299.726 1965.517 359.452 2000v68.966l-59.726 34.482L240 2068.966V2000ZM419.726 1965.517 479.452 2000v68.966l-59.726 34.482L360 2068.966V2000ZM539.726 1965.517 599.452 2000v68.966l-59.726 34.482L480 2068.966V2000ZM659.726 1965.517 719.452 2000v68.966l-59.726 34.482L600 2068.966V2000Z"/><path stroke="#8de059" stroke-width="1.37932" fill="#8de0598b" d="M779.726 1965.517 839.452 2000v68.966l-59.726 34.482L720 2068.966V2000Z"/><path stroke="#8de059" stroke-width="1.37932" fill="none" d="M899.726 1965.517 959.452 2000v68.966l-59.726 34.482L840 2068.966V2000Z"/><path stroke="#8de059" stroke-width="1.37932" fill="#8de05971" d="m1019.726 1965.517 59.726 34.483v68.966l-59.726 34.482L960 2068.966V2000Z"/><path stroke="#8de059" stroke-width="1.37932" fill="#8de0597a" d="m1139.726 1965.517 59.726 34.483v68.966l-59.726 34.482-59.726-34.482V2000Z"/><path stroke="#8de059" stroke-width="1.37932" fill="none" d="m1259.726 1965.517 59.726 34.483v68.966l-59.726 34.482-59.726-34.482V2000ZM1379.726 1965.517l59.726 34.483v68.966l-59.726 34.482-59.726-34.482V2000ZM1499.726 1965.517l59.726 34.483v68.966l-59.726 34.482-59.726-34.482V2000ZM1619.726 1965.517l59.726 34.483v68.966l-59.726 34.482-59.726-34.482V2000Z"/><path stroke="#8de059" stroke-width="1.37932" fill="#8de05970" d="m1739.726 1965.517 59.726 34.483v68.966l-59.726 34.482-59.726-34.482V2000Z"/><path stroke="#8de059" stroke-width="1.37932" fill="#8de05901" d="m1859.726 1965.517 59.726 34.483v68.966l-59.726 34.482-59.726-34.482V2000Z"/><path stroke="#8de059" stroke-width="1.37932" fill="#8de05927" d="m1979.726 1965.517 59.726 34.483v68.966l-59.726 34.482-59.726-34.482V2000Z"/><path stroke="#8de059" stroke-width="1.37932" fill="#8de0596d" d="m2099.726 1965.517 59.726 34.483v68.966l-59.726 34.482-59.726-34.482V2000Z"/><path stroke="#8de059" stroke-width="1.37932" fill="none" d="m2219.726 1965.517 59.726 34.483v68.966l-59.726 34.482-59.726-34.482V2000Z"/><path stroke="#8de059" stroke-width="1.37932" fill="#8de059e6" d="m2339.726 1965.517 59.726 34.483v68.966l-59.726 34.482-59.726-34.482V2000Z"/><path stroke="#8de059" stroke-width="1.37932" fill="none" d="m119.726 2068.966 59.726 34.482v68.966l-59.726 34.483L60 2172.414v-68.966ZM239.726 2068.966l59.726 34.482v68.966l-59.726 34.483L180 2172.414v-68.966ZM359.726 2068.966l59.726 34.482v68.966l-59.726 34.483L300 2172.414v-68.966ZM479.726 2068.966l59.726 34.482v68.966l-59.726 34.483L420 2172.414v-68.966Z"/><path stroke="#8de059" stroke-width="1.37932" fill="#8de0591a" d="m599.726 2068.966 59.726 34.482v68.966l-59.726 34.483L540 2172.414v-68.966Z"/><path stroke="#8de059" stroke-width="1.37932" fill="#8de059e1" d="m719.726 2068.966 59.726 34.482v68.966l-59.726 34.483L660 2172.414v-68.966Z"/><path stroke="#8de059" stroke-width="1.37932" fill="none" d="m839.726 2068.966 59.726 34.482v68.966l-59.726 34.483L780 2172.414v-68.966ZM959.726 2068.966l59.726 34.482v68.966l-59.726 34.483L900 2172.414v-68.966ZM1079.726 2068.966l59.726 34.482v68.966l-59.726 34.483-59.726-34.483v-68.966Z"/><path stroke="#8de059" stroke-width="1.37932" fill="#8de0593c" d="m1199.726 2068.966 59.726 34.482v68.966l-59.726 34.483-59.726-34.483v-68.966Z"/><path stroke="#8de059" stroke-width="1.37932" fill="#8de05953" d="m1319.726 2068.966 59.726 34.482v68.966l-59.726 34.483-59.726-34.483v-68.966Z"/><path stroke="#8de059" stroke-width="1.37932" fill="none" d="m1439.726 2068.966 59.726 34.482v68.966l-59.726 34.483-59.726-34.483v-68.966Z"/><path stroke="#8de059" stroke-width="1.37932" fill="#8de059be" d="m1559.726 2068.966 59.726 34.482v68.966l-59.726 34.483-59.726-34.483v-68.966Z"/><path stroke="#8de059" stroke-width="1.37932" fill="none" d="m1679.726 2068.966 59.726 34.482v68.966l-59.726 34.483-59.726-34.483v-68.966Z"/><path stroke="#8de059" stroke-width="1.37932" fill="#8de059c3" d="m1799.726 2068.966 59.726 34.482v68.966l-59.726 34.483-59.726-34.483v-68.966Z"/><path stroke="#8de059" stroke-width="1.37932" fill="none" d="m1919.726 2068.966 59.726 34.482v68.966l-59.726 34.483-59.726-34.483v-68.966ZM2039.726 2068.966l59.726 34.482v68.966l-59.726 34.483-59.726-34.483v-68.966ZM2159.726 2068.966l59.726 34.482v68.966l-59.726 34.483-59.726-34.483v-68.966ZM2279.726 2068.966l59.726 34.482v68.966l-59.726 34.483-59.726-34.483v-68.966ZM2399.726 2068.966l59.726 34.482v68.966l-59.726 34.483-59.726-34.483v-68.966ZM59.726 2172.414l59.726 34.483v68.965l-59.726 34.483L0 2275.862v-68.965ZM179.726 2172.414l59.726 34.483v68.965l-59.726 34.483L120 2275.862v-68.965Z"/><path stroke="#8de059" stroke-width="1.37932" fill="#8de05954" d="m299.726 2172.414 59.726 34.483v68.965l-59.726 34.483L240 2275.862v-68.965Z"/><path stroke="#8de059" stroke-width="1.37932" fill="none" d="m419.726 2172.414 59.726 34.483v68.965l-59.726 34.483L360 2275.862v-68.965ZM539.726 2172.414l59.726 34.483v68.965l-59.726 34.483L480 2275.862v-68.965ZM659.726 2172.414l59.726 34.483v68.965l-59.726 34.483L600 2275.862v-68.965Z"/><path stroke="#8de059" stroke-width="1.37932" fill="#8de05919" d="m779.726 2172.414 59.726 34.483v68.965l-59.726 34.483L720 2275.862v-68.965Z"/><path stroke="#8de059" stroke-width="1.37932" fill="#8de0595f" d="m899.726 2172.414 59.726 34.483v68.965l-59.726 34.483L840 2275.862v-68.965Z"/><path stroke="#8de059" stroke-width="1.37932" fill="none" d="m1019.726 2172.414 59.726 34.483v68.965l-59.726 34.483L960 2275.862v-68.965Z"/><path stroke="#8de059" stroke-width="1.37932" fill="#8de059bb" d="m1139.726 2172.414 59.726 34.483v68.965l-59.726 34.483-59.726-34.483v-68.965Z"/><path stroke="#8de059" stroke-width="1.37932" fill="#8de05921" d="m1259.726 2172.414 59.726 34.483v68.965l-59.726 34.483-59.726-34.483v-68.965Z"/><path stroke="#8de059" stroke-width="1.37932" fill="none" d="m1379.726 2172.414 59.726 34.483v68.965l-59.726 34.483-59.726-34.483v-68.965Z"/><path stroke="#8de059" stroke-width="1.37932" fill="#8de0595a" d="m1499.726 2172.414 59.726 34.483v68.965l-59.726 34.483-59.726-34.483v-68.965Z"/><path stroke="#8de059" stroke-width="1.37932" fill="none" d="m1619.726 2172.414 59.726 34.483v68.965l-59.726 34.483-59.726-34.483v-68.965ZM1739.726 2172.414l59.726 34.483v68.965l-59.726 34.483-59.726-34.483v-68.965ZM1859.726 2172.414l59.726 34.483v68.965l-59.726 34.483-59.726-34.483v-68.965ZM1979.726 2172.414l59.726 34.483v68.965l-59.726 34.483-59.726-34.483v-68.965ZM2099.726 2172.414l59.726 34.483v68.965l-59.726 34.483-59.726-34.483v-68.965ZM2219.726 2172.414l59.726 34.483v68.965l-59.726 34.483-59.726-34.483v-68.965Z"/><path stroke="#8de059" stroke-width="1.37932" fill="#8de059ef" d="m2339.726 2172.414 59.726 34.483v68.965l-59.726 34.483-59.726-34.483v-68.965Z"/><path stroke="#8de059" stroke-width="1.37932" fill="#8de059b4" d="m119.726 2275.862 59.726 34.483v68.965l-59.726 34.483L60 2379.31v-68.965Z"/><path stroke="#8de059" stroke-width="1.37932" fill="none" d="m239.726 2275.862 59.726 34.483v68.965l-59.726 34.483L180 2379.31v-68.965Z"/><path stroke="#8de059" stroke-width="1.37932" fill="#8de05955" d="m359.726 2275.862 59.726 34.483v68.965l-59.726 34.483L300 2379.31v-68.965Z"/><path stroke="#8de059" stroke-width="1.37932" fill="#8de059c7" d="m479.726 2275.862 59.726 34.483v68.965l-59.726 34.483L420 2379.31v-68.965Z"/><path stroke="#8de059" stroke-width="1.37932" fill="#8de059c0" d="m599.726 2275.862 59.726 34.483v68.965l-59.726 34.483L540 2379.31v-68.965Z"/><path stroke="#8de059" stroke-width="1.37932" fill="#8de0590b" d="m719.726 2275.862 59.726 34.483v68.965l-59.726 34.483L660 2379.31v-68.965Z"/><path stroke="#8de059" stroke-width="1.37932" fill="none" d="m839.726 2275.862 59.726 34.483v68.965l-59.726 34.483L780 2379.31v-68.965ZM959.726 2275.862l59.726 34.483v68.965l-59.726 34.483L900 2379.31v-68.965Z"/><path stroke="#8de059" stroke-width="1.37932" fill="#8de0598a" d="m1079.726 2275.862 59.726 34.483v68.965l-59.726 34.483L1020 2379.31v-68.965Z"/><path stroke="#8de059" stroke-width="1.37932" fill="#8de05963" d="m1199.726 2275.862 59.726 34.483v68.965l-59.726 34.483L1140 2379.31v-68.965Z"/><path stroke="#8de059" stroke-width="1.37932" fill="none" d="m1319.726 2275.862 59.726 34.483v68.965l-59.726 34.483L1260 2379.31v-68.965ZM1439.726 2275.862l59.726 34.483v68.965l-59.726 34.483L1380 2379.31v-68.965ZM1559.726 2275.862l59.726 34.483v68.965l-59.726 34.483L1500 2379.31v-68.965Z"/><path stroke="#8de059" stroke-width="1.37932" fill="#8de059cb" d="m1679.726 2275.862 59.726 34.483v68.965l-59.726 34.483L1620 2379.31v-68.965Z"/><path stroke="#8de059" stroke-width="1.37932" fill="none" d="m1799.726 2275.862 59.726 34.483v68.965l-59.726 34.483L1740 2379.31v-68.965ZM1919.726 2275.862l59.726 34.483v68.965l-59.726 34.483L1860 2379.31v-68.965Z"/><path stroke="#8de059" stroke-width="1.37932" fill="#8de0591f" d="m2039.726 2275.862 59.726 34.483v68.965l-59.726 34.483L1980 2379.31v-68.965Z"/><path stroke="#8de059" stroke-width="1.37932" fill="#8de0590a" d="m2159.726 2275.862 59.726 34.483v68.965l-59.726 34.483L2100 2379.31v-68.965Z"/><path stroke="#8de059" stroke-width="1.37932" fill="none" d="m2279.726 2275.862 59.726 34.483v68.965l-59.726 34.483L2220 2379.31v-68.965ZM2399.726 2275.862l59.726 34.483v68.965l-59.726 34.483L2340 2379.31v-68.965ZM59.726 2379.31l59.726 34.483v68.966l-59.726 34.482L0 2482.76v-68.966Z"/><path stroke="#8de059" stroke-width="1.37932" fill="#8de0590a" d="m179.726 2379.31 59.726 34.483v68.966l-59.726 34.482L120 2482.76v-68.966Z"/><path stroke="#8de059" stroke-width="1.37932" fill="none" d="m299.726 2379.31 59.726 34.483v68.966l-59.726 34.482L240 2482.76v-68.966ZM419.726 2379.31l59.726 34.483v68.966l-59.726 34.482L360 2482.76v-68.966ZM539.726 2379.31l59.726 34.483v68.966l-59.726 34.482L480 2482.76v-68.966Z"/><path stroke="#8de059" stroke-width="1.37932" fill="#8de05912" d="m659.726 2379.31 59.726 34.483v68.966l-59.726 34.482L600 2482.76v-68.966Z"/><path stroke="#8de059" stroke-width="1.37932" fill="none" d="m779.726 2379.31 59.726 34.483v68.966l-59.726 34.482L720 2482.76v-68.966ZM899.726 2379.31l59.726 34.483v68.966l-59.726 34.482L840 2482.76v-68.966Z"/><path stroke="#8de059" stroke-width="1.37932" fill="#8de05922" d="m1019.726 2379.31 59.726 34.483v68.966l-59.726 34.482L960 2482.76v-68.966Z"/><path stroke="#8de059" stroke-width="1.37932" fill="none" d="m1139.726 2379.31 59.726 34.483v68.966l-59.726 34.482L1080 2482.76v-68.966Z"/><path stroke="#8de059" stroke-width="1.37932" fill="#8de05992" d="m1259.726 2379.31 59.726 34.483v68.966l-59.726 34.482L1200 2482.76v-68.966Z"/><path stroke="#8de059" stroke-width="1.37932" fill="none" d="m1379.726 2379.31 59.726 34.483v68.966l-59.726 34.482L1320 2482.76v-68.966ZM1499.726 2379.31l59.726 34.483v68.966l-59.726 34.482L1440 2482.76v-68.966ZM1619.726 2379.31l59.726 34.483v68.966l-59.726 34.482L1560 2482.76v-68.966ZM1739.726 2379.31l59.726 34.483v68.966l-59.726 34.482L1680 2482.76v-68.966ZM1859.726 2379.31l59.726 34.483v68.966l-59.726 34.482L1800 2482.76v-68.966Z"/><path stroke="#8de059" stroke-width="1.37932" fill="#8de059b1" d="m1979.726 2379.31 59.726 34.483v68.966l-59.726 34.482L1920 2482.76v-68.966Z"/><path stroke="#8de059" stroke-width="1.37932" fill="#8de059ca" d="m2099.726 2379.31 59.726 34.483v68.966l-59.726 34.482L2040 2482.76v-68.966Z"/><path stroke="#8de059" stroke-width="1.37932" fill="none" d="m2219.726 2379.31 59.726 34.483v68.966l-59.726 34.482L2160 2482.76v-68.966ZM2339.726 2379.31l59.726 34.483v68.966l-59.726 34.482L2280 2482.76v-68.966ZM119.726 2482.759l59.726 34.482v68.966l-59.726 34.483L60 2586.207v-68.966ZM239.726 2482.759l59.726 34.482v68.966l-59.726 34.483L180 2586.207v-68.966ZM359.726 2482.759l59.726 34.482v68.966l-59.726 34.483L300 2586.207v-68.966ZM479.726 2482.759l59.726 34.482v68.966l-59.726 34.483L420 2586.207v-68.966ZM599.726 2482.759l59.726 34.482v68.966l-59.726 34.483L540 2586.207v-68.966Z"/><path stroke="#8de059" stroke-width="1.37932" fill="#8de059cb" d="m719.726 2482.759 59.726 34.482v68.966l-59.726 34.483L660 2586.207v-68.966Z"/><path stroke="#8de059" stroke-width="1.37932" fill="#8de05917" d="m839.726 2482.759 59.726 34.482v68.966l-59.726 34.483L780 2586.207v-68.966Z"/><path stroke="#8de059" stroke-width="1.37932" fill="#8de05958" d="m959.726 2482.759 59.726 34.482v68.966l-59.726 34.483L900 2586.207v-68.966Z"/><path stroke="#8de059" stroke-width="1.37932" fill="none" d="m1079.726 2482.759 59.726 34.482v68.966l-59.726 34.483-59.726-34.483v-68.966Z"/><path stroke="#8de059" stroke-width="1.37932" fill="#8de0595d" d="m1199.726 2482.759 59.726 34.482v68.966l-59.726 34.483-59.726-34.483v-68.966Z"/><path stroke="#8de059" stroke-width="1.37932" fill="#8de0596c" d="m1319.726 2482.759 59.726 34.482v68.966l-59.726 34.483-59.726-34.483v-68.966Z"/><path stroke="#8de059" stroke-width="1.37932" fill="none" d="m1439.726 2482.759 59.726 34.482v68.966l-59.726 34.483-59.726-34.483v-68.966Z"/><path stroke="#8de059" stroke-width="1.37932" fill="#8de05931" d="m1559.726 2482.759 59.726 34.482v68.966l-59.726 34.483-59.726-34.483v-68.966Z"/><path stroke="#8de059" stroke-width="1.37932" fill="#8de0591b" d="m1679.726 2482.759 59.726 34.482v68.966l-59.726 34.483-59.726-34.483v-68.966Z"/><path stroke="#8de059" stroke-width="1.37932" fill="none" d="m1799.726 2482.759 59.726 34.482v68.966l-59.726 34.483-59.726-34.483v-68.966ZM1919.726 2482.759l59.726 34.482v68.966l-59.726 34.483-59.726-34.483v-68.966ZM2039.726 2482.759l59.726 34.482v68.966l-59.726 34.483-59.726-34.483v-68.966ZM2159.726 2482.759l59.726 34.482v68.966l-59.726 34.483-59.726-34.483v-68.966ZM2279.726 2482.759l59.726 34.482v68.966l-59.726 34.483-59.726-34.483v-68.966Z"/><path stroke="#8de059" stroke-width="1.37932" fill="#8de0595c" d="m2399.726 2482.759 59.726 34.482v68.966l-59.726 34.483-59.726-34.483v-68.966Z"/><path stroke="#8de059" stroke-width="1.37932" fill="#8de05996" d="m59.726 2586.207 59.726 34.483v68.965l-59.726 34.483L0 2689.655v-68.965Z"/><path stroke="#8de059" stroke-width="1.37932" fill="none" d="m179.726 2586.207 59.726 34.483v68.965l-59.726 34.483L120 2689.655v-68.965Z"/><path stroke="#8de059" stroke-width="1.37932" fill="#8de05954" d="m299.726 2586.207 59.726 34.483v68.965l-59.726 34.483L240 2689.655v-68.965Z"/><path stroke="#8de059" stroke-width="1.37932" fill="none" d="m419.726 2586.207 59.726 34.483v68.965l-59.726 34.483L360 2689.655v-68.965ZM539.726 2586.207l59.726 34.483v68.965l-59.726 34.483L480 2689.655v-68.965ZM659.726 2586.207l59.726 34.483v68.965l-59.726 34.483L600 2689.655v-68.965ZM779.726 2586.207l59.726 34.483v68.965l-59.726 34.483L720 2689.655v-68.965ZM899.726 2586.207l59.726 34.483v68.965l-59.726 34.483L840 2689.655v-68.965ZM1019.726 2586.207l59.726 34.483v68.965l-59.726 34.483L960 2689.655v-68.965ZM1139.726 2586.207l59.726 34.483v68.965l-59.726 34.483-59.726-34.483v-68.965ZM1259.726 2586.207l59.726 34.483v68.965l-59.726 34.483-59.726-34.483v-68.965ZM1379.726 2586.207l59.726 34.483v68.965l-59.726 34.483-59.726-34.483v-68.965ZM1499.726 2586.207l59.726 34.483v68.965l-59.726 34.483-59.726-34.483v-68.965ZM1619.726 2586.207l59.726 34.483v68.965l-59.726 34.483-59.726-34.483v-68.965ZM1739.726 2586.207l59.726 34.483v68.965l-59.726 34.483-59.726-34.483v-68.965ZM1859.726 2586.207l59.726 34.483v68.965l-59.726 34.483-59.726-34.483v-68.965Z"/><path stroke="#8de059" stroke-width="1.37932" fill="#8de0599d" d="m1979.726 2586.207 59.726 34.483v68.965l-59.726 34.483-59.726-34.483v-68.965Z"/><path stroke="#8de059" stroke-width="1.37932" fill="none" d="m2099.726 2586.207 59.726 34.483v68.965l-59.726 34.483-59.726-34.483v-68.965ZM2219.726 2586.207l59.726 34.483v68.965l-59.726 34.483-59.726-34.483v-68.965ZM2339.726 2586.207l59.726 34.483v68.965l-59.726 34.483-59.726-34.483v-68.965ZM119.726 2689.655l59.726 34.483v68.965l-59.726 34.483L60 2793.103v-68.965ZM239.726 2689.655l59.726 34.483v68.965l-59.726 34.483L180 2793.103v-68.965Z"/><path stroke="#8de059" stroke-width="1.37932" fill="#8de05910" d="m359.726 2689.655 59.726 34.483v68.965l-59.726 34.483L300 2793.103v-68.965Z"/><path stroke="#8de059" stroke-width="1.37932" fill="#8de059f6" d="m479.726 2689.655 59.726 34.483v68.965l-59.726 34.483L420 2793.103v-68.965Z"/><path stroke="#8de059" stroke-width="1.37932" fill="none" d="m599.726 2689.655 59.726 34.483v68.965l-59.726 34.483L540 2793.103v-68.965Z"/><path stroke="#8de059" stroke-width="1.37932" fill="#8de059f1" d="m719.726 2689.655 59.726 34.483v68.965l-59.726 34.483L660 2793.103v-68.965Z"/><path stroke="#8de059" stroke-width="1.37932" fill="none" d="m839.726 2689.655 59.726 34.483v68.965l-59.726 34.483L780 2793.103v-68.965Z"/><path stroke="#8de059" stroke-width="1.37932" fill="#8de05921" d="m959.726 2689.655 59.726 34.483v68.965l-59.726 34.483L900 2793.103v-68.965Z"/><path stroke="#8de059" stroke-width="1.37932" fill="none" d="m1079.726 2689.655 59.726 34.483v68.965l-59.726 34.483-59.726-34.483v-68.965ZM1199.726 2689.655l59.726 34.483v68.965l-59.726 34.483-59.726-34.483v-68.965ZM1319.726 2689.655l59.726 34.483v68.965l-59.726 34.483-59.726-34.483v-68.965ZM1439.726 2689.655l59.726 34.483v68.965l-59.726 34.483-59.726-34.483v-68.965ZM1559.726 2689.655l59.726 34.483v68.965l-59.726 34.483-59.726-34.483v-68.965ZM1679.726 2689.655l59.726 34.483v68.965l-59.726 34.483-59.726-34.483v-68.965ZM1799.726 2689.655l59.726 34.483v68.965l-59.726 34.483-59.726-34.483v-68.965ZM1919.726 2689.655l59.726 34.483v68.965l-59.726 34.483-59.726-34.483v-68.965ZM2039.726 2689.655l59.726 34.483v68.965l-59.726 34.483-59.726-34.483v-68.965Z"/><path stroke="#8de059" stroke-width="1.37932" fill="#8de05963" d="m2159.726 2689.655 59.726 34.483v68.965l-59.726 34.483-59.726-34.483v-68.965Z"/><path stroke="#8de059" stroke-width="1.37932" fill="none" d="m2279.726 2689.655 59.726 34.483v68.965l-59.726 34.483-59.726-34.483v-68.965ZM2399.726 2689.655l59.726 34.483v68.965l-59.726 34.483-59.726-34.483v-68.965Z"/><path stroke="#8de059" stroke-width="1.37932" fill="#8de05913" d="m59.726 2793.103 59.726 34.483v68.966l-59.726 34.482L0 2896.552v-68.966Z"/><path stroke="#8de059" stroke-width="1.37932" fill="none" d="m179.726 2793.103 59.726 34.483v68.966l-59.726 34.482L120 2896.552v-68.966Z"/><path stroke="#8de059" stroke-width="1.37932" fill="#8de059ee" d="m299.726 2793.103 59.726 34.483v68.966l-59.726 34.482L240 2896.552v-68.966Z"/><path stroke="#8de059" stroke-width="1.37932" fill="none" d="m419.726 2793.103 59.726 34.483v68.966l-59.726 34.482L360 2896.552v-68.966ZM539.726 2793.103l59.726 34.483v68.966l-59.726 34.482L480 2896.552v-68.966ZM659.726 2793.103l59.726 34.483v68.966l-59.726 34.482L600 2896.552v-68.966ZM779.726 2793.103l59.726 34.483v68.966l-59.726 34.482L720 2896.552v-68.966ZM899.726 2793.103l59.726 34.483v68.966l-59.726 34.482L840 2896.552v-68.966Z"/><path stroke="#8de059" stroke-width="1.37932" fill="#8de0594f" d="m1019.726 2793.103 59.726 34.483v68.966l-59.726 34.482L960 2896.552v-68.966Z"/><path stroke="#8de059" stroke-width="1.37932" fill="#8de0597c" d="m1139.726 2793.103 59.726 34.483v68.966l-59.726 34.482-59.726-34.482v-68.966Z"/><path stroke="#8de059" stroke-width="1.37932" fill="#8de05960" d="m1259.726 2793.103 59.726 34.483v68.966l-59.726 34.482-59.726-34.482v-68.966Z"/><path stroke="#8de059" stroke-width="1.37932" fill="#8de0596b" d="m1379.726 2793.103 59.726 34.483v68.966l-59.726 34.482-59.726-34.482v-68.966Z"/><path stroke="#8de059" stroke-width="1.37932" fill="none" d="m1499.726 2793.103 59.726 34.483v68.966l-59.726 34.482-59.726-34.482v-68.966ZM1619.726 2793.103l59.726 34.483v68.966l-59.726 34.482-59.726-34.482v-68.966ZM1739.726 2793.103l59.726 34.483v68.966l-59.726 34.482-59.726-34.482v-68.966Z"/><path stroke="#8de059" stroke-width="1.37932" fill="#8de05954" d="m1859.726 2793.103 59.726 34.483v68.966l-59.726 34.482-59.726-34.482v-68.966Z"/><path stroke="#8de059" stroke-width="1.37932" fill="none" d="m1979.726 2793.103 59.726 34.483v68.966l-59.726 34.482-59.726-34.482v-68.966ZM2099.726 2793.103l59.726 34.483v68.966l-59.726 34.482-59.726-34.482v-68.966Z"/><path stroke="#8de059" stroke-width="1.37932" fill="#8de059da" d="m2219.726 2793.103 59.726 34.483v68.966l-59.726 34.482-59.726-34.482v-68.966Z"/><path stroke="#8de059" stroke-width="1.37932" fill="#8de05918" d="m2339.726 2793.103 59.726 34.483v68.966l-59.726 34.482-59.726-34.482v-68.966Z"/><path stroke="#8de059" stroke-width="1.37932" fill="#8de05939" d="m119.726 2896.552 59.726 34.482V3000l-59.726 34.483L60 3000v-68.966Z"/><path stroke="#8de059" stroke-width="1.37932" fill="none" d="m239.726 2896.552 59.726 34.482V3000l-59.726 34.483L180 3000v-68.966Z"/><path stroke="#8de059" stroke-width="1.37932" fill="#8de059e9" d="m359.726 2896.552 59.726 34.482V3000l-59.726 34.483L300 3000v-68.966Z"/><path stroke="#8de059" stroke-width="1.37932" fill="#8de05971" d="m479.726 2896.552 59.726 34.482V3000l-59.726 34.483L420 3000v-68.966Z"/><path stroke="#8de059" stroke-width="1.37932" fill="#8de05929" d="m599.726 2896.552 59.726 34.482V3000l-59.726 34.483L540 3000v-68.966Z"/><path stroke="#8de059" stroke-width="1.37932" fill="none" d="m719.726 2896.552 59.726 34.482V3000l-59.726 34.483L660 3000v-68.966Z"/><path stroke="#8de059" stroke-width="1.37932" fill="#8de059dd" d="m839.726 2896.552 59.726 34.482V3000l-59.726 34.483L780 3000v-68.966Z"/><path stroke="#8de059" stroke-width="1.37932" fill="none" d="m959.726 2896.552 59.726 34.482V3000l-59.726 34.483L900 3000v-68.966ZM1079.726 2896.552l59.726 34.482V3000l-59.726 34.483L1020 3000v-68.966ZM1199.726 2896.552l59.726 34.482V3000l-59.726 34.483L1140 3000v-68.966Z"/><path stroke="#8de059" stroke-width="1.37932" fill="#8de0591e" d="m1319.726 2896.552 59.726 34.482V3000l-59.726 34.483L1260 3000v-68.966Z"/><path stroke="#8de059" stroke-width="1.37932" fill="none" d="m1439.726 2896.552 59.726 34.482V3000l-59.726 34.483L1380 3000v-68.966ZM1559.726 2896.552l59.726 34.482V3000l-59.726 34.483L1500 3000v-68.966ZM1679.726 2896.552l59.726 34.482V3000l-59.726 34.483L1620 3000v-68.966Z"/><path stroke="#8de059" stroke-width="1.37932" fill="#8de059ee" d="m1799.726 2896.552 59.726 34.482V3000l-59.726 34.483L1740 3000v-68.966Z"/><path stroke="#8de059" stroke-width="1.37932" fill="#8de05972" d="m1919.726 2896.552 59.726 34.482V3000l-59.726 34.483L1860 3000v-68.966Z"/><path stroke="#8de059" stroke-width="1.37932" fill="none" d="m2039.726 2896.552 59.726 34.482V3000l-59.726 34.483L1980 3000v-68.966ZM2159.726 2896.552l59.726 34.482V3000l-59.726 34.483L2100 3000v-68.966ZM2279.726 2896.552l59.726 34.482V3000l-59.726 34.483L2220 3000v-68.966Z"/><path stroke="#8de059" stroke-width="1.37932" fill="#8de059e4" d="m2399.726 2896.552 59.726 34.482V3000l-59.726 34.483L2340 3000v-68.966Z"/><path stroke="#8de059" stroke-width="1.37932" fill="#8de05995" d="m59.726 3000 59.726 34.483v68.965l-59.726 34.483L0 3103.448v-68.965Z"/><path stroke="#8de059" stroke-width="1.37932" fill="#8de0591c" d="m179.726 3000 59.726 34.483v68.965l-59.726 34.483L120 3103.448v-68.965Z"/><path stroke="#8de059" stroke-width="1.37932" fill="#8de0593a" d="m299.726 3000 59.726 34.483v68.965l-59.726 34.483L240 3103.448v-68.965Z"/><path stroke="#8de059" stroke-width="1.37932" fill="none" d="m419.726 3000 59.726 34.483v68.965l-59.726 34.483L360 3103.448v-68.965ZM539.726 3000l59.726 34.483v68.965l-59.726 34.483L480 3103.448v-68.965ZM659.726 3000l59.726 34.483v68.965l-59.726 34.483L600 3103.448v-68.965ZM779.726 3000l59.726 34.483v68.965l-59.726 34.483L720 3103.448v-68.965ZM899.726 3000l59.726 34.483v68.965l-59.726 34.483L840 3103.448v-68.965ZM1019.726 3000l59.726 34.483v68.965l-59.726 34.483L960 3103.448v-68.965ZM1139.726 3000l59.726 34.483v68.965l-59.726 34.483-59.726-34.483v-68.965Z"/><path stroke="#8de059" stroke-width="1.37932" fill="#8de05965" d="m1259.726 3000 59.726 34.483v68.965l-59.726 34.483-59.726-34.483v-68.965Z"/><path stroke="#8de059" stroke-width="1.37932" fill="#8de05955" d="m1379.726 3000 59.726 34.483v68.965l-59.726 34.483-59.726-34.483v-68.965Z"/><path stroke="#8de059" stroke-width="1.37932" fill="none" d="m1499.726 3000 59.726 34.483v68.965l-59.726 34.483-59.726-34.483v-68.965Z"/><path stroke="#8de059" stroke-width="1.37932" fill="#8de059d6" d="m1619.726 3000 59.726 34.483v68.965l-59.726 34.483-59.726-34.483v-68.965Z"/><path stroke="#8de059" stroke-width="1.37932" fill="#8de059cd" d="m1739.726 3000 59.726 34.483v68.965l-59.726 34.483-59.726-34.483v-68.965Z"/><path stroke="#8de059" stroke-width="1.37932" fill="none" d="m1859.726 3000 59.726 34.483v68.965l-59.726 34.483-59.726-34.483v-68.965ZM1979.726 3000l59.726 34.483v68.965l-59.726 34.483-59.726-34.483v-68.965ZM2099.726 3000l59.726 34.483v68.965l-59.726 34.483-59.726-34.483v-68.965Z"/><path stroke="#8de059" stroke-width="1.37932" fill="#8de05959" d="m2219.726 3000 59.726 34.483v68.965l-59.726 34.483-59.726-34.483v-68.965Z"/><path stroke="#8de059" stroke-width="1.37932" fill="none" d="m2339.726 3000 59.726 34.483v68.965l-59.726 34.483-59.726-34.483v-68.965ZM119.726 3103.448l59.726 34.483v68.966l-59.726 34.482L60 3206.897v-68.966ZM239.726 3103.448l59.726 34.483v68.966l-59.726 34.482L180 3206.897v-68.966Z"/><path stroke="#8de059" stroke-width="1.37932" fill="#8de05918" d="m359.726 3103.448 59.726 34.483v68.966l-59.726 34.482L300 3206.897v-68.966Z"/><path stroke="#8de059" stroke-width="1.37932" fill="#8de059cb" d="m479.726 3103.448 59.726 34.483v68.966l-59.726 34.482L420 3206.897v-68.966Z"/><path stroke="#8de059" stroke-width="1.37932" fill="none" d="m599.726 3103.448 59.726 34.483v68.966l-59.726 34.482L540 3206.897v-68.966ZM719.726 3103.448l59.726 34.483v68.966l-59.726 34.482L660 3206.897v-68.966ZM839.726 3103.448l59.726 34.483v68.966l-59.726 34.482L780 3206.897v-68.966Z"/><path stroke="#8de059" stroke-width="1.37932" fill="#8de05996" d="m959.726 3103.448 59.726 34.483v68.966l-59.726 34.482L900 3206.897v-68.966Z"/><path stroke="#8de059" stroke-width="1.37932" fill="none" d="m1079.726 3103.448 59.726 34.483v68.966l-59.726 34.482-59.726-34.482v-68.966ZM1199.726 3103.448l59.726 34.483v68.966l-59.726 34.482-59.726-34.482v-68.966ZM1319.726 3103.448l59.726 34.483v68.966l-59.726 34.482-59.726-34.482v-68.966ZM1439.726 3103.448l59.726 34.483v68.966l-59.726 34.482-59.726-34.482v-68.966ZM1559.726 3103.448l59.726 34.483v68.966l-59.726 34.482-59.726-34.482v-68.966Z"/><path stroke="#8de059" stroke-width="1.37932" fill="#8de05942" d="m1679.726 3103.448 59.726 34.483v68.966l-59.726 34.482-59.726-34.482v-68.966Z"/><path stroke="#8de059" stroke-width="1.37932" fill="#8de059b9" d="m1799.726 3103.448 59.726 34.483v68.966l-59.726 34.482-59.726-34.482v-68.966Z"/><path stroke="#8de059" stroke-width="1.37932" fill="none" d="m1919.726 3103.448 59.726 34.483v68.966l-59.726 34.482-59.726-34.482v-68.966Z"/><path stroke="#8de059" stroke-width="1.37932" fill="#8de059a5" d="m2039.726 3103.448 59.726 34.483v68.966l-59.726 34.482-59.726-34.482v-68.966Z"/><path stroke="#8de059" stroke-width="1.37932" fill="#8de0592a" d="m2159.726 3103.448 59.726 34.483v68.966l-59.726 34.482-59.726-34.482v-68.966Z"/><path stroke="#8de059" stroke-width="1.37932" fill="none" d="m2279.726 3103.448 59.726 34.483v68.966l-59.726 34.482-59.726-34.482v-68.966Z"/><path stroke="#8de059" stroke-width="1.37932" fill="#8de059da" d="m2399.726 3103.448 59.726 34.483v68.966l-59.726 34.482-59.726-34.482v-68.966Z"/><path stroke="#8de059" stroke-width="1.37932" fill="none" d="m59.726 3206.897 59.726 34.482v68.966l-59.726 34.483L0 3310.345v-68.966ZM179.726 3206.897l59.726 34.482v68.966l-59.726 34.483L120 3310.345v-68.966ZM299.726 3206.897l59.726 34.482v68.966l-59.726 34.483L240 3310.345v-68.966ZM419.726 3206.897l59.726 34.482v68.966l-59.726 34.483L360 3310.345v-68.966ZM539.726 3206.897l59.726 34.482v68.966l-59.726 34.483L480 3310.345v-68.966Z"/><path stroke="#8de059" stroke-width="1.37932" fill="#8de05994" d="m659.726 3206.897 59.726 34.482v68.966l-59.726 34.483L600 3310.345v-68.966Z"/><path stroke="#8de059" stroke-width="1.37932" fill="none" d="m779.726 3206.897 59.726 34.482v68.966l-59.726 34.483L720 3310.345v-68.966Z"/><path stroke="#8de059" stroke-width="1.37932" fill="#8de05922" d="m899.726 3206.897 59.726 34.482v68.966l-59.726 34.483L840 3310.345v-68.966Z"/><path stroke="#8de059" stroke-width="1.37932" fill="none" d="m1019.726 3206.897 59.726 34.482v68.966l-59.726 34.483L960 3310.345v-68.966ZM1139.726 3206.897l59.726 34.482v68.966l-59.726 34.483-59.726-34.483v-68.966ZM1259.726 3206.897l59.726 34.482v68.966l-59.726 34.483-59.726-34.483v-68.966ZM1379.726 3206.897l59.726 34.482v68.966l-59.726 34.483-59.726-34.483v-68.966Z"/><path stroke="#8de059" stroke-width="1.37932" fill="#8de0597a" d="m1499.726 3206.897 59.726 34.482v68.966l-59.726 34.483-59.726-34.483v-68.966Z"/><path stroke="#8de059" stroke-width="1.37932" fill="none" d="m1619.726 3206.897 59.726 34.482v68.966l-59.726 34.483-59.726-34.483v-68.966ZM1739.726 3206.897l59.726 34.482v68.966l-59.726 34.483-59.726-34.483v-68.966ZM1859.726 3206.897l59.726 34.482v68.966l-59.726 34.483-59.726-34.483v-68.966Z"/><path stroke="#8de059" stroke-width="1.37932" fill="#8de059b4" d="m1979.726 3206.897 59.726 34.482v68.966l-59.726 34.483-59.726-34.483v-68.966Z"/><path stroke="#8de059" stroke-width="1.37932" fill="none" d="m2099.726 3206.897 59.726 34.482v68.966l-59.726 34.483-59.726-34.483v-68.966Z"/><path stroke="#8de059" stroke-width="1.37932" fill="#8de059df" d="m2219.726 3206.897 59.726 34.482v68.966l-59.726 34.483-59.726-34.483v-68.966Z"/><path stroke="#8de059" stroke-width="1.37932" fill="none" d="m2339.726 3206.897 59.726 34.482v68.966l-59.726 34.483-59.726-34.483v-68.966ZM119.726 3310.345l59.726 34.483v68.965l-59.726 34.483L60 3413.793v-68.965ZM239.726 3310.345l59.726 34.483v68.965l-59.726 34.483L180 3413.793v-68.965ZM359.726 3310.345l59.726 34.483v68.965l-59.726 34.483L300 3413.793v-68.965ZM479.726 3310.345l59.726 34.483v68.965l-59.726 34.483L420 3413.793v-68.965ZM599.726 3310.345l59.726 34.483v68.965l-59.726 34.483L540 3413.793v-68.965ZM719.726 3310.345l59.726 34.483v68.965l-59.726 34.483L660 3413.793v-68.965ZM839.726 3310.345l59.726 34.483v68.965l-59.726 34.483L780 3413.793v-68.965ZM959.726 3310.345l59.726 34.483v68.965l-59.726 34.483L900 3413.793v-68.965ZM1079.726 3310.345l59.726 34.483v68.965l-59.726 34.483-59.726-34.483v-68.965ZM1199.726 3310.345l59.726 34.483v68.965l-59.726 34.483-59.726-34.483v-68.965ZM1319.726 3310.345l59.726 34.483v68.965l-59.726 34.483-59.726-34.483v-68.965Z"/><path stroke="#8de059" stroke-width="1.37932" fill="#8de0591d" d="m1439.726 3310.345 59.726 34.483v68.965l-59.726 34.483-59.726-34.483v-68.965Z"/><path stroke="#8de059" stroke-width="1.37932" fill="none" d="m1559.726 3310.345 59.726 34.483v68.965l-59.726 34.483-59.726-34.483v-68.965ZM1679.726 3310.345l59.726 34.483v68.965l-59.726 34.483-59.726-34.483v-68.965ZM1799.726 3310.345l59.726 34.483v68.965l-59.726 34.483-59.726-34.483v-68.965Z"/><path stroke="#8de059" stroke-width="1.37932" fill="#8de0594f" d="m1919.726 3310.345 59.726 34.483v68.965l-59.726 34.483-59.726-34.483v-68.965Z"/><path stroke="#8de059" stroke-width="1.37932" fill="#8de059e3" d="m2039.726 3310.345 59.726 34.483v68.965l-59.726 34.483-59.726-34.483v-68.965Z"/><path stroke="#8de059" stroke-width="1.37932" fill="none" d="m2159.726 3310.345 59.726 34.483v68.965l-59.726 34.483-59.726-34.483v-68.965ZM2279.726 3310.345l59.726 34.483v68.965l-59.726 34.483-59.726-34.483v-68.965ZM2399.726 3310.345l59.726 34.483v68.965l-59.726 34.483-59.726-34.483v-68.965ZM59.726 3413.793l59.726 34.483v68.965l-59.726 34.483L0 3517.241v-68.965ZM179.726 3413.793l59.726 34.483v68.965l-59.726 34.483L120 3517.241v-68.965Z"/><path stroke="#8de059" stroke-width="1.37932" fill="#8de059c0" d="m299.726 3413.793 59.726 34.483v68.965l-59.726 34.483L240 3517.241v-68.965Z"/><path stroke="#8de059" stroke-width="1.37932" fill="#8de05934" d="m419.726 3413.793 59.726 34.483v68.965l-59.726 34.483L360 3517.241v-68.965Z"/><path stroke="#8de059" stroke-width="1.37932" fill="none" d="m539.726 3413.793 59.726 34.483v68.965l-59.726 34.483L480 3517.241v-68.965ZM659.726 3413.793l59.726 34.483v68.965l-59.726 34.483L600 3517.241v-68.965ZM779.726 3413.793l59.726 34.483v68.965l-59.726 34.483L720 3517.241v-68.965ZM899.726 3413.793l59.726 34.483v68.965l-59.726 34.483L840 3517.241v-68.965ZM1019.726 3413.793l59.726 34.483v68.965l-59.726 34.483L960 3517.241v-68.965ZM1139.726 3413.793l59.726 34.483v68.965l-59.726 34.483-59.726-34.483v-68.965Z"/><path stroke="#8de059" stroke-width="1.37932" fill="#8de059d3" d="m1259.726 3413.793 59.726 34.483v68.965l-59.726 34.483-59.726-34.483v-68.965Z"/><path stroke="#8de059" stroke-width="1.37932" fill="#8de059da" d="m1379.726 3413.793 59.726 34.483v68.965l-59.726 34.483-59.726-34.483v-68.965Z"/><path stroke="#8de059" stroke-width="1.37932" fill="none" d="m1499.726 3413.793 59.726 34.483v68.965l-59.726 34.483-59.726-34.483v-68.965Z"/><path stroke="#8de059" stroke-width="1.37932" fill="#8de0594e" d="m1619.726 3413.793 59.726 34.483v68.965l-59.726 34.483-59.726-34.483v-68.965Z"/><path stroke="#8de059" stroke-width="1.37932" fill="#8de05906" d="m1739.726 3413.793 59.726 34.483v68.965l-59.726 34.483-59.726-34.483v-68.965Z"/><path stroke="#8de059" stroke-width="1.37932" fill="none" d="m1859.726 3413.793 59.726 34.483v68.965l-59.726 34.483-59.726-34.483v-68.965ZM1979.726 3413.793l59.726 34.483v68.965l-59.726 34.483-59.726-34.483v-68.965ZM2099.726 3413.793l59.726 34.483v68.965l-59.726 34.483-59.726-34.483v-68.965Z"/><path stroke="#8de059" stroke-width="1.37932" fill="#8de05935" d="m2219.726 3413.793 59.726 34.483v68.965l-59.726 34.483-59.726-34.483v-68.965Z"/><path stroke="#8de059" stroke-width="1.37932" fill="none" d="m2339.726 3413.793 59.726 34.483v68.965l-59.726 34.483-59.726-34.483v-68.965Z"/><path stroke="#8de059" stroke-width="1.37932" fill="#8de05938" d="m119.726 3517.241 59.726 34.483v68.966l-59.726 34.482L60 3620.69v-68.966Z"/><path stroke="#8de059" stroke-width="1.37932" fill="none" d="m239.726 3517.241 59.726 34.483v68.966l-59.726 34.482L180 3620.69v-68.966ZM359.726 3517.241l59.726 34.483v68.966l-59.726 34.482L300 3620.69v-68.966ZM479.726 3517.241l59.726 34.483v68.966l-59.726 34.482L420 3620.69v-68.966ZM599.726 3517.241l59.726 34.483v68.966l-59.726 34.482L540 3620.69v-68.966Z"/><path stroke="#8de059" stroke-width="1.37932" fill="#8de0595e" d="m719.726 3517.241 59.726 34.483v68.966l-59.726 34.482L660 3620.69v-68.966Z"/><path stroke="#8de059" stroke-width="1.37932" fill="#8de05903" d="m839.726 3517.241 59.726 34.483v68.966l-59.726 34.482L780 3620.69v-68.966Z"/><path stroke="#8de059" stroke-width="1.37932" fill="none" d="m959.726 3517.241 59.726 34.483v68.966l-59.726 34.482L900 3620.69v-68.966ZM1079.726 3517.241l59.726 34.483v68.966l-59.726 34.482L1020 3620.69v-68.966Z"/><path stroke="#8de059" stroke-width="1.37932" fill="#8de0598b" d="m1199.726 3517.241 59.726 34.483v68.966l-59.726 34.482L1140 3620.69v-68.966Z"/><path stroke="#8de059" stroke-width="1.37932" fill="#8de05991" d="m1319.726 3517.241 59.726 34.483v68.966l-59.726 34.482L1260 3620.69v-68.966Z"/><path stroke="#8de059" stroke-width="1.37932" fill="none" d="m1439.726 3517.241 59.726 34.483v68.966l-59.726 34.482L1380 3620.69v-68.966ZM1559.726 3517.241l59.726 34.483v68.966l-59.726 34.482L1500 3620.69v-68.966ZM1679.726 3517.241l59.726 34.483v68.966l-59.726 34.482L1620 3620.69v-68.966ZM1799.726 3517.241l59.726 34.483v68.966l-59.726 34.482L1740 3620.69v-68.966ZM1919.726 3517.241l59.726 34.483v68.966l-59.726 34.482L1860 3620.69v-68.966Z"/><path stroke="#8de059" stroke-width="1.37932" fill="#8de0596f" d="m2039.726 3517.241 59.726 34.483v68.966l-59.726 34.482L1980 3620.69v-68.966Z"/><path stroke="#8de059" stroke-width="1.37932" fill="none" d="m2159.726 3517.241 59.726 34.483v68.966l-59.726 34.482L2100 3620.69v-68.966ZM2279.726 3517.241l59.726 34.483v68.966l-59.726 34.482L2220 3620.69v-68.966Z"/><path stroke="#8de059" stroke-width="1.37932" fill="#8de0592a" d="m2399.726 3517.241 59.726 34.483v68.966l-59.726 34.482L2340 3620.69v-68.966Z"/></g><defs><radialGradient id="a"><stop offset="0" stop-color="#fff"/><stop offset="1" stop-color="#fff" stop-opacity="0"/></radialGradient></defs></svg>