<svg id="visual" viewBox="0 0 900 600" width="900" height="600" xmlns="http://www.w3.org/2000/svg" xmlns:xlink="http://www.w3.org/1999/xlink" version="1.1"><rect x="0" y="0" width="900" height="600" fill="#ffffff"></rect><defs><linearGradient id="grad1_0" x1="33.3%" y1="0%" x2="100%" y2="100%"><stop offset="20%" stop-color="#ffffff" stop-opacity="1"></stop><stop offset="80%" stop-color="#ffffff" stop-opacity="1"></stop></linearGradient></defs><defs><linearGradient id="grad2_0" x1="0%" y1="0%" x2="66.7%" y2="100%"><stop offset="20%" stop-color="#ffffff" stop-opacity="1"></stop><stop offset="80%" stop-color="#ffffff" stop-opacity="1"></stop></linearGradient></defs><g transform="translate(900, 0)"><path d="M0 432.7C-36.7 433.9 -73.3 435.1 -91.9 402.6C-110.5 370.2 -110.9 304.2 -141 292.8C-171.1 281.5 -230.8 324.8 -251.9 315.9C-272.9 306.9 -255.3 245.7 -273.6 218.2C-292 190.7 -346.4 196.9 -377.5 181.8C-408.6 166.7 -416.5 130.1 -421.8 96.3C-427.1 62.4 -429.9 31.2 -432.7 0L0 0Z" fill="#12CF8F"></path></g><g transform="translate(0, 600)"><path d="M0 -432.7C28.5 -417.1 57 -401.5 91.2 -399.7C125.5 -398 165.6 -410.1 187.7 -389.8C209.9 -369.6 214.2 -317 230.1 -288.5C246 -260 273.6 -255.7 302.6 -241.3C331.6 -226.9 362 -202.6 355 -171C347.9 -139.3 303.3 -100.5 310 -70.8C316.7 -41.1 374.7 -20.5 432.7 0L0 0Z" fill="#12CF8F"></path></g></svg>