<svg id="visual" viewBox="0 0 1280 720" width="1280" height="720" xmlns="http://www.w3.org/2000/svg" xmlns:xlink="http://www.w3.org/1999/xlink" version="1.1"><rect x="0" y="0" width="1280" height="720" fill="#ffffff"></rect><defs><linearGradient id="grad1_0" x1="43.8%" y1="100%" x2="100%" y2="0%"><stop offset="14.444444444444446%" stop-color="#18cf13" stop-opacity="1"></stop><stop offset="85.55555555555554%" stop-color="#18cf13" stop-opacity="1"></stop></linearGradient></defs><defs><linearGradient id="grad1_1" x1="43.8%" y1="100%" x2="100%" y2="0%"><stop offset="14.444444444444446%" stop-color="#18cf13" stop-opacity="1"></stop><stop offset="85.55555555555554%" stop-color="#a8e995" stop-opacity="1"></stop></linearGradient></defs><defs><linearGradient id="grad1_2" x1="43.8%" y1="100%" x2="100%" y2="0%"><stop offset="14.444444444444446%" stop-color="#ffffff" stop-opacity="1"></stop><stop offset="85.55555555555554%" stop-color="#a8e995" stop-opacity="1"></stop></linearGradient></defs><defs><linearGradient id="grad2_0" x1="0%" y1="100%" x2="56.3%" y2="0%"><stop offset="14.444444444444446%" stop-color="#18cf13" stop-opacity="1"></stop><stop offset="85.55555555555554%" stop-color="#18cf13" stop-opacity="1"></stop></linearGradient></defs><defs><linearGradient id="grad2_1" x1="0%" y1="100%" x2="56.3%" y2="0%"><stop offset="14.444444444444446%" stop-color="#a8e995" stop-opacity="1"></stop><stop offset="85.55555555555554%" stop-color="#18cf13" stop-opacity="1"></stop></linearGradient></defs><defs><linearGradient id="grad2_2" x1="0%" y1="100%" x2="56.3%" y2="0%"><stop offset="14.444444444444446%" stop-color="#a8e995" stop-opacity="1"></stop><stop offset="85.55555555555554%" stop-color="#ffffff" stop-opacity="1"></stop></linearGradient></defs><g transform="translate(1280, 720)"><path d="M-648 0C-648.7 -72.1 -649.4 -144.3 -616.3 -200.2C-583.2 -256.2 -516.2 -296 -463.6 -336.8C-410.9 -377.6 -372.6 -419.6 -326.8 -449.8C-281 -480.1 -227.8 -498.7 -172.1 -529.7C-116.4 -560.8 -58.2 -604.4 0 -648L0 0Z" fill="#d5f5ca"></path><path d="M-432 0C-432.5 -48.1 -432.9 -96.2 -410.9 -133.5C-388.8 -170.8 -344.1 -197.3 -309 -224.5C-273.9 -251.8 -248.4 -279.7 -217.9 -299.9C-187.4 -320 -151.9 -332.4 -114.7 -353.2C-77.6 -373.9 -38.8 -402.9 0 -432L0 0Z" fill="#73dd5e"></path><path d="M-216 0C-216.2 -24 -216.5 -48.1 -205.4 -66.7C-194.4 -85.4 -172.1 -98.7 -154.5 -112.3C-137 -125.9 -124.2 -139.9 -108.9 -149.9C-93.7 -160 -75.9 -166.2 -57.4 -176.6C-38.8 -186.9 -19.4 -201.5 0 -216L0 0Z" fill="#18cf13"></path></g><g transform="translate(0, 0)"><path d="M648 0C641.9 66.5 635.8 133 612.5 199C589.1 265 548.5 330.4 485.4 352.7C422.3 374.9 336.6 354.1 291.5 401.3C246.5 448.5 242.1 563.8 200.2 616.3C158.4 668.8 79.2 658.4 0 648L0 0Z" fill="#d5f5ca"></path><path d="M432 0C427.9 44.3 423.9 88.7 408.3 132.7C392.8 176.7 365.7 220.3 323.6 235.1C281.5 250 224.4 236 194.4 267.5C164.3 299 161.4 375.9 133.5 410.9C105.6 445.8 52.8 438.9 0 432L0 0Z" fill="#73dd5e"></path><path d="M216 0C214 22.2 211.9 44.3 204.2 66.3C196.4 88.3 182.8 110.1 161.8 117.6C140.8 125 112.2 118 97.2 133.8C82.2 149.5 80.7 187.9 66.7 205.4C52.8 222.9 26.4 219.5 0 216L0 0Z" fill="#18cf13"></path></g></svg>