<svg id="eaYxdzK3EbU1" xmlns="http://www.w3.org/2000/svg" xmlns:xlink="http://www.w3.org/1999/xlink" viewBox="0 0 670 130" shape-rendering="geometricPrecision" text-rendering="geometricPrecision"><g transform="matrix(1.293829 0 0 1.293829 69.258279-.244218)"><ellipse rx="10" ry="10" transform="translate(68.999999 23)" fill="#ffd180" stroke-width="0"/><rect width="64.315634" height="32.482643" rx="16.24" ry="16.24" transform="matrix(.688964 0 0 0.693789 35.988354 11.721245)" fill="rgba(255,255,255,0)" stroke="#657381" stroke-width="2"/><rect width="351.504006" height="14.33186" rx="10.63" ry="10.63" transform="matrix(.786087 0 0 1 98.4823 15)" fill="#ffd180" stroke-width="0"/></g><g transform="matrix(1.293829 0 0 1.293829 69.258279 70.755782)"><ellipse rx="10" ry="10" transform="translate(68.999999 23)" fill="#ffd180" stroke-width="0"/><rect width="64.315634" height="32.482643" rx="16.24" ry="16.24" transform="matrix(.688964 0 0 0.693789 35.988354 11.721245)" fill="rgba(255,255,255,0)" stroke="#657381" stroke-width="2"/><rect width="351.504006" height="14.33186" rx="10.63" ry="10.63" transform="matrix(.786087 0 0 1 98.4823 15)" fill="#ffd180" stroke-width="0"/></g><g transform="matrix(1.293829 0 0 1.293829 69.258313 37.111325)"><ellipse rx="10" ry="10" transform="translate(47.399999 23)" fill="#d2dbed" stroke-width="0"/><rect width="64.315634" height="32.482643" rx="16.24" ry="16.24" transform="matrix(.688964 0 0 0.693789 35.988354 11.721245)" fill="rgba(255,255,255,0)" stroke="#657381" stroke-width="2"/><rect width="351.504006" height="14.33186" rx="10.63" ry="10.63" transform="matrix(.786087 0 0 1 98.4823 15)" fill="#d2dbed" stroke-width="0"/></g></svg>
