<svg id="elmAJP3XGeH1" xmlns="http://www.w3.org/2000/svg" xmlns:xlink="http://www.w3.org/1999/xlink" viewBox="0 0 500 500" shape-rendering="geometricPrecision" text-rendering="geometricPrecision"><g style="mix-blend-mode:multiply" transform="translate(.000001 0.000001)" opacity="0.82"><path d="M-157.056094,153.694097c2.493752.598501,76.632675-32.870348,109.599996-31.637629c20.436777.764175,66.709472,9.910768,68.265825,10.22119c59.815484,11.930503,93.728603,55.315812,98.444297,120.292584.849047,11.698876-9.346698,134.949081-98.11186,117.75219" transform="matrix(.772283 0.635279-.635279 0.772283 212.386858 98.320644)" opacity="0.47" fill="none" stroke="#3f5787" stroke-width="2" stroke-linecap="round" stroke-linejoin="round"/><path d="M-147.905285,150.591882c2.493752.598501,97.355685-26.201669,130.323006-24.96895c20.436777.764175,36.835653,6.344304,38.392006,6.654726c59.815484,11.930503,93.728603,55.315812,98.444297,120.292584.849047,11.698876,1.789113,132.071481-86.976049,114.87459" transform="matrix(.658877 0.541991-.547461 0.665526 173.113399 119.109069)" opacity="0.47" fill="none" stroke="#3f5787" stroke-width="2" stroke-linecap="round" stroke-linejoin="round"/><path d="M-325.342092,156.515221c2.493752.598501,170.554849-41.671258,202.177778-41.631141c20.451043.025944,142.417688,17.083156,143.974041,17.393578c59.815484,11.930503,93.728603,55.315812,98.444297,120.292584.849047,11.698876-17.432691,143.276404-106.197853,126.079513" transform="matrix(.301777 0.248242-.459725 0.558869 163.35366 155.726772)" opacity="0.47" fill="none" stroke="#3f5787" stroke-width="3" stroke-linecap="round" stroke-linejoin="round"/><path d="M32.277975,367.444832c.738161.177159-569.504409-8.756796-212.447219-224.262643c44.434056-26.81867,140.324554-17.5875,162.586965-17.559257c20.451043.025944,36.835653,6.344304,38.392006,6.654726c59.815484,11.930503,93.728603,55.315812,98.444297,120.292584.849047,11.698876-9.497356,123.825058-86.976049,114.87459" transform="matrix(.156312 0.128582-.231728 0.281702 100.769913 210.935099)" opacity="0.47" fill="none" stroke="#3f5787" stroke-width="5" stroke-linecap="round" stroke-linejoin="round"/><path d="M32.277975,367.444832c.738161.177159-569.504409-8.756796-212.447219-224.262643c44.434056-26.81867,140.324554-17.5875,162.586965-17.559257c20.451043.025944,36.835653,6.344304,38.392006,6.654726c59.815484,11.930503,93.728603,55.315812,98.444297,120.292584.849047,11.698876-9.497356,123.825058-86.976049,114.87459" transform="matrix(.128177 0.105439-.190013 0.230991 83.825991 220.629955)" opacity="0.47" fill="none" stroke="#3f5787" stroke-width="5" stroke-linecap="round" stroke-linejoin="round" stroke-miterlimit="6"/><path d="M32.277975,367.444832c.738161.177159-569.504409-8.756796-212.447219-224.262643c44.434056-26.81867,140.324554-17.5875,162.586965-17.559257c20.451043.025944,36.835653,6.344304,38.392006,6.654726c59.815484,11.930503,93.728603,55.315812,98.444297,120.292584.849047,11.698876-9.497356,123.825058-86.976049,114.87459" transform="matrix(.09261 0.076181-.137297 0.166907 63.524211 233.465019)" opacity="0.47" fill="none" stroke="#3f5787" stroke-width="5" stroke-linecap="round" stroke-linejoin="round" stroke-miterlimit="6"/><path d="M42.946091,372.449868c0-.000003-581.183143-12.956907-224.125953-228.462754c44.434056-26.81867,140.324554-17.5875,162.586965-17.559257c20.451043.025944,36.835653,6.344304,38.392006,6.654726c59.815484,11.930503,93.728603,55.315812,98.444297,120.292584.849047,11.698876,11.856051,136.225492-76.909111,119.028601" transform="matrix(.254625 0.209455-.377483 0.45889 134.020651 174.09485)" opacity="0.47" fill="none" stroke="#3f5787" stroke-width="3" stroke-linecap="round" stroke-linejoin="round" stroke-miterlimit="6"/><path d="M32.277975,367.444832c.738161.177159-569.504409-8.756796-212.447219-224.262643c44.434056-26.81867,140.324554-17.5875,162.586965-17.559257c20.451043.025944,36.835653,6.344304,38.392006,6.654726c59.815484,11.930503,93.728603,55.315812,98.444297,120.292584.849047,11.698876-9.497356,123.825058-86.976049,114.87459" transform="matrix(.051596 0.042443-.07649 0.092986 45.486748 249.343503)" opacity="0.47" fill="none" stroke="#3f5787" stroke-width="5" stroke-linecap="round" stroke-linejoin="round" stroke-miterlimit="6"/></g><rect width="382.613048" height="276.821422" rx="124" ry="124" transform="matrix(.707107 0.707107-.707107 0.707107-26.854941 19.370345)" opacity="0.8" fill="#ffd180" stroke-width="0"/></svg>
