<svg id="exTXEpqRiaK1" xmlns="http://www.w3.org/2000/svg" xmlns:xlink="http://www.w3.org/1999/xlink" viewBox="0 0 500 500" shape-rendering="geometricPrecision" text-rendering="geometricPrecision"><path d="M280.9085,200.61987c-71.93242-50.36763-89.41415-149.5114-39.04652-221.44383l104.39091-149.08567c50.36763-71.93242,149.5114-89.41415,221.44383-39.04652l149.08567,104.39091c71.93242,50.36763,89.41415,149.5114,39.04652,221.44383L651.438,265.96426c-50.36763,71.93242-149.5114,89.41415-221.44383,39.04652L280.9085,200.61987Z" transform="translate(.000002 0)" fill="#12cf8f" stroke-width="0"/><path style="mix-blend-mode:multiply" d="M311.82882,-119.082715q86.330946,310.504138,456.834589,41.366912" transform="translate(22.000001-64)" opacity="0.2" fill="none" stroke="#12af8f"/><path style="mix-blend-mode:multiply" d="M311.82882,-119.082715q86.330946,310.504138,456.834589,41.366912" transform="matrix(.818898 0 0 0.716063 100.839653-125.897806)" opacity="0.2" fill="none" stroke="#12af8f" stroke-width="2"/><path style="mix-blend-mode:multiply" d="M311.82882,-119.082715q86.330946,310.504138,456.834589,41.366912" transform="matrix(1.228346 0 0 1.473813-101.363038-30.814549)" opacity="0.2" fill="none" stroke="#12af8f"/><path style="mix-blend-mode:multiply" d="M311.82882,-119.082715C363.309799,66.077506,489.435564,97.579683,692.493856,-26.439976c23.953895-14.630054,50.106326-32.343261,76.169553-51.275827" transform="matrix(-1.228346 0 0-1.473813 1184.450881 197.86636)" opacity="0.2" fill="none" stroke="#12af8f"/><path style="mix-blend-mode:multiply" d="M311.82882,-119.082715q86.330946,310.504138,456.834589,41.366912" transform="matrix(-.657985 0 0-.760752 874.719956 222.616849)" opacity="0.2" fill="none" stroke="#12af8f" stroke-width="2"/><path style="mix-blend-mode:multiply" d="M311.82882,-119.082715q86.330946,310.504138,456.834589,41.366912" transform="matrix(-.657985 0 0-.760752 874.719956 259.616849)" opacity="0.2" fill="none" stroke="#12af8f" stroke-width="2"/><path style="mix-blend-mode:multiply" d="M311.82882,-119.082715q86.330946,310.504138,456.834589,41.366912" transform="matrix(-.443496 0 0-.760752 758.843108 300.616849)" opacity="0.2" fill="none" stroke="#12af8f" stroke-width="3"/><path style="mix-blend-mode:multiply" d="M265.066224,133.876194c-16.709521-72.690513,30.894906-71.076431,68.762597-24.454978-4.299758,56.528015-12.11455-.958446-39.771392,61.064451q-18.14524,40.692294-28.991205-36.609473" transform="translate(.000003 0)" opacity="0.2" fill="none" stroke="#12af8f"/><path style="mix-blend-mode:multiply" d="M265.066224,133.876194c-16.709521-72.690513,30.894906-71.076431,68.762597-24.454978-4.299758,56.528015-12.11455-.958446-39.771392,61.064451q-18.14524,40.692294-28.991205-36.609473" transform="matrix(1.650552 0 0 1.452425-194.806181-57.817826)" opacity="0.2" fill="none" stroke="#12af8f"/><path style="mix-blend-mode:multiply" d="M265.066224,133.876194c-16.709521-72.690513,30.894906-71.076431,68.762597-24.454978-4.299758,56.528015-12.11455-.958446-39.771392,61.064451q-18.14524,40.692294-28.991205-36.609473" transform="matrix(2.950924 0 0 2.356283-584.199354-176.326705)" opacity="0.2" fill="none" stroke="#12af8f" stroke-width="0.5"/><path d="" opacity="0.2" fill="none" stroke="#12af8f" stroke-width="2"/><path d="" opacity="0.2" fill="none" stroke="#12af8f"/><rect width="539.206478" height="181.258128" rx="0" ry="0" transform="matrix(.491491 0.344146-.401504 0.573406 196.523137 141.407996)" fill="#fefeff" stroke-width="0"/><rect width="89.347503" height="159.457337" rx="0" ry="0" transform="translate(123.747364 0.000001)" fill="#fefeff" stroke-width="0"/><rect width="21.753033" height="15.060126" rx="0" ry="0" transform="matrix(.656059 0.75471-.377355 0.32803 242.848642 163.570598)" fill="#fefeff" stroke-width="0"/><rect width="11.297163" height="18.527348" rx="0" ry="0" transform="matrix(.927184 0.374607-.56191 1.390776 218.654051-3.989664)" fill="#fff" stroke-width="0"/></svg>
