<svg id="er7MLfPQAei1" xmlns="http://www.w3.org/2000/svg" xmlns:xlink="http://www.w3.org/1999/xlink" viewBox="0 0 300 460" shape-rendering="geometricPrecision" text-rendering="geometricPrecision"><g><path d="M300,167.83352Q265.475399,230,266.901693,230l33.098306,117.546575" transform="translate(.000002 0.000001)" opacity="0.26" fill="none" stroke="#fff" stroke-linecap="round" stroke-linejoin="round"/><path d="M300,167.83352Q265.475399,230,266.901693,230l33.098306,117.546575" transform="matrix(2.173576 0 0 2.173576-334.651108-289.418854)" opacity="0.26" fill="none" stroke="#fff" stroke-width="0.6" stroke-linecap="round" stroke-linejoin="round"/><path d="M300,167.83352Q265.475399,230,266.901693,230l33.098306,117.546575" transform="matrix(3.370653 0 0 3.370653-670.963596-578.893682)" opacity="0.26" fill="none" stroke="#fff" stroke-width="0.4" stroke-linecap="round" stroke-linejoin="round"/><path d="M300,167.83352Q265.475399,230,266.901693,230l33.098306,117.546575" transform="matrix(4.982231 0 0 4.982231-1116.766744-958.181293)" opacity="0.26" fill="none" stroke="#fff" stroke-width="0.3" stroke-linecap="round" stroke-linejoin="round"/><path d="M300,167.83352Q265.475399,230,266.901693,230l33.098306,117.546575" transform="matrix(6.856826 0 0 6.856826-1644.122283-1407.245766)" opacity="0.26" fill="none" stroke="#fff" stroke-width="0.2" stroke-linecap="round" stroke-linejoin="round"/><path d="M300,167.83352Q265.475399,230,266.901693,230l33.098306,117.546575" transform="matrix(8.970299 0 0 8.970299-2243.187992-1912.866723)" opacity="0.26" fill="none" stroke="#fff" stroke-width="0.2" stroke-linecap="round" stroke-linejoin="round"/><path d="M300,167.83352Q265.475399,230,266.901693,230l33.098306,117.546575" transform="matrix(1.413114 0 0 1.413114-120.097511-97.455365)" opacity="0.26" fill="none" stroke="#fff" stroke-width="1.2" stroke-linecap="round" stroke-linejoin="round"/><path d="M300,167.83352Q265.475399,230,266.901693,230l33.098306,117.546575" transform="matrix(.818721 0 0 0.818721 56.383688 46.713795)" opacity="0.26" fill="none" stroke="#fff" stroke-width="1.2" stroke-linecap="round" stroke-linejoin="round"/><path d="M300,167.83352Q265.475399,230,266.901693,230l33.098306,117.546575" transform="matrix(.818722 0 0 0.818722 70.383404 53.713537)" opacity="0.26" fill="none" stroke="#fff" stroke-width="1.2" stroke-linecap="round" stroke-linejoin="round"/></g></svg>
