<svg xmlns="http://www.w3.org/2000/svg" version="1.1" xmlns:xlink="http://www.w3.org/1999/xlink" xmlns:svgjs="http://svgjs.dev/svgjs" viewBox="0 0 800 800"><defs><linearGradient x1="50%" y1="0%" x2="50%" y2="100%" id="ffflurry-grad" gradientTransform="rotate(270)"><stop stop-color="hsl(0, 0%, 100%)" stop-opacity="1" offset="0%"></stop><stop stop-color="hsl(127, 78%, 54%)" stop-opacity="1" offset="45%"></stop><stop stop-color="hsl(127, 48%, 76%)" stop-opacity="1" offset="100%"></stop></linearGradient></defs><rect width="100%" height="100%" fill="hsl(0, 0%, 100%)"></rect><g fill="url(#ffflurry-grad)"><rect width="74" height="3" x="737" y="694.5" rx="1.5" transform="rotate(45, 774, 696)" opacity="0.58"></rect><rect width="54" height="3" x="96" y="456.5" rx="1.5" transform="rotate(45, 123, 458)" opacity="0.12"></rect><rect width="168" height="3" x="225" y="599.5" rx="1.5" transform="rotate(45, 309, 601)" opacity="0.08"></rect><rect width="58" height="3" x="11" y="97.5" rx="1.5" transform="rotate(45, 40, 99)" opacity="0.11"></rect><rect width="562" height="3" x="-225" y="329.5" rx="1.5" transform="rotate(45, 56, 331)" opacity="0.48"></rect><rect width="228" height="3" x="128" y="677.5" rx="1.5" transform="rotate(45, 242, 679)" opacity="0.26"></rect><rect width="370" height="3" x="405" y="226.5" rx="1.5" transform="rotate(45, 590, 228)" opacity="0.64"></rect><rect width="279" height="3" x="230.5" y="666.5" rx="1.5" transform="rotate(45, 370, 668)" opacity="0.67"></rect><rect width="356" height="3" x="302" y="33.5" rx="1.5" transform="rotate(45, 480, 35)" opacity="0.26"></rect><rect width="163" height="3" x="651.5" y="452.5" rx="1.5" transform="rotate(45, 733, 454)" opacity="0.21"></rect><rect width="327" height="3" x="604.5" y="625.5" rx="1.5" transform="rotate(45, 768, 627)" opacity="0.64"></rect><rect width="318" height="3" x="298" y="117.5" rx="1.5" transform="rotate(45, 457, 119)" opacity="0.21"></rect><rect width="69" height="3" x="172.5" y="84.5" rx="1.5" transform="rotate(45, 207, 86)" opacity="0.25"></rect><rect width="66" height="3" x="4" y="228.5" rx="1.5" transform="rotate(45, 37, 230)" opacity="0.22"></rect><rect width="352" height="3" x="-34" y="660.5" rx="1.5" transform="rotate(45, 142, 662)" opacity="0.25"></rect><rect width="117" height="3" x="-18.5" y="761.5" rx="1.5" transform="rotate(45, 40, 763)" opacity="0.92"></rect><rect width="291" height="3" x="359.5" y="173.5" rx="1.5" transform="rotate(45, 505, 175)" opacity="0.67"></rect><rect width="149" height="3" x="487.5" y="633.5" rx="1.5" transform="rotate(45, 562, 635)" opacity="0.72"></rect><rect width="396" height="3" x="289" y="716.5" rx="1.5" transform="rotate(45, 487, 718)" opacity="0.12"></rect><rect width="335" height="3" x="-49.5" y="65.5" rx="1.5" transform="rotate(45, 118, 67)" opacity="0.10"></rect><rect width="243" height="3" x="392.5" y="292.5" rx="1.5" transform="rotate(45, 514, 294)" opacity="0.41"></rect><rect width="553" height="3" x="398.5" y="39.5" rx="1.5" transform="rotate(45, 675, 41)" opacity="0.61"></rect><rect width="190" height="3" x="577" y="232.5" rx="1.5" transform="rotate(45, 672, 234)" opacity="0.63"></rect><rect width="242" height="3" x="647" y="739.5" rx="1.5" transform="rotate(45, 768, 741)" opacity="0.29"></rect><rect width="360" height="3" x="507" y="595.5" rx="1.5" transform="rotate(45, 687, 597)" opacity="0.14"></rect><rect width="202" height="3" x="652" y="262.5" rx="1.5" transform="rotate(45, 753, 264)" opacity="0.45"></rect><rect width="523" height="3" x="-217.5" y="432.5" rx="1.5" transform="rotate(45, 44, 434)" opacity="0.09"></rect><rect width="220" height="3" x="-69" y="643.5" rx="1.5" transform="rotate(45, 41, 645)" opacity="0.85"></rect><rect width="338" height="3" x="149" y="119.5" rx="1.5" transform="rotate(45, 318, 121)" opacity="0.75"></rect><rect width="366" height="3" x="264" y="212.5" rx="1.5" transform="rotate(45, 447, 214)" opacity="0.64"></rect><rect width="271" height="3" x="126.5" y="756.5" rx="1.5" transform="rotate(45, 262, 758)" opacity="0.46"></rect><rect width="47" height="3" x="604.5" y="587.5" rx="1.5" transform="rotate(45, 628, 589)" opacity="0.98"></rect><rect width="69" height="3" x="648.5" y="770.5" rx="1.5" transform="rotate(45, 683, 772)" opacity="0.76"></rect><rect width="153" height="3" x="514.5" y="32.5" rx="1.5" transform="rotate(45, 591, 34)" opacity="0.79"></rect><rect width="63" height="3" x="121.5" y="759.5" rx="1.5" transform="rotate(45, 153, 761)" opacity="0.86"></rect><rect width="128" height="3" x="474" y="76.5" rx="1.5" transform="rotate(45, 538, 78)" opacity="0.16"></rect><rect width="57" height="3" x="609.5" y="697.5" rx="1.5" transform="rotate(45, 638, 699)" opacity="0.09"></rect><rect width="153" height="3" x="79.5" y="570.5" rx="1.5" transform="rotate(45, 156, 572)" opacity="0.26"></rect><rect width="443" height="3" x="-51.5" y="363.5" rx="1.5" transform="rotate(45, 170, 365)" opacity="0.83"></rect><rect width="269" height="3" x="493.5" y="350.5" rx="1.5" transform="rotate(45, 628, 352)" opacity="0.32"></rect><rect width="182" height="3" x="616" y="732.5" rx="1.5" transform="rotate(45, 707, 734)" opacity="0.30"></rect><rect width="123" height="3" x="579.5" y="773.5" rx="1.5" transform="rotate(45, 641, 775)" opacity="0.44"></rect><rect width="519" height="3" x="382.5" y="121.5" rx="1.5" transform="rotate(45, 642, 123)" opacity="0.76"></rect><rect width="292" height="3" x="430" y="767.5" rx="1.5" transform="rotate(45, 576, 769)" opacity="0.48"></rect><rect width="575" height="3" x="459.5" y="364.5" rx="1.5" transform="rotate(45, 747, 366)" opacity="0.25"></rect><rect width="126" height="3" x="169" y="590.5" rx="1.5" transform="rotate(45, 232, 592)" opacity="0.63"></rect><rect width="600" height="3" x="121" y="382.5" rx="1.5" transform="rotate(45, 421, 384)" opacity="0.20"></rect><rect width="232" height="3" x="640" y="779.5" rx="1.5" transform="rotate(45, 756, 781)" opacity="0.70"></rect><rect width="331" height="3" x="80.5" y="181.5" rx="1.5" transform="rotate(45, 246, 183)" opacity="0.61"></rect><rect width="606" height="3" x="52" y="462.5" rx="1.5" transform="rotate(45, 355, 464)" opacity="0.97"></rect><rect width="330" height="3" x="175" y="38.5" rx="1.5" transform="rotate(45, 340, 40)" opacity="0.37"></rect><rect width="541" height="3" x="4.5" y="497.5" rx="1.5" transform="rotate(45, 275, 499)" opacity="0.21"></rect><rect width="153" height="3" x="119.5" y="478.5" rx="1.5" transform="rotate(45, 196, 480)" opacity="0.41"></rect><rect width="357" height="3" x="86.5" y="33.5" rx="1.5" transform="rotate(45, 265, 35)" opacity="0.52"></rect><rect width="224" height="3" x="285" y="295.5" rx="1.5" transform="rotate(45, 397, 297)" opacity="0.49"></rect><rect width="304" height="3" x="216" y="193.5" rx="1.5" transform="rotate(45, 368, 195)" opacity="0.67"></rect><rect width="419" height="3" x="184.5" y="753.5" rx="1.5" transform="rotate(45, 394, 755)" opacity="0.80"></rect><rect width="544" height="3" x="252" y="417.5" rx="1.5" transform="rotate(45, 524, 419)" opacity="0.16"></rect><rect width="512" height="3" x="39" y="379.5" rx="1.5" transform="rotate(45, 295, 381)" opacity="0.75"></rect><rect width="714" height="3" x="270" y="478.5" rx="1.5" transform="rotate(45, 627, 480)" opacity="0.17"></rect><rect width="353" height="3" x="375.5" y="551.5" rx="1.5" transform="rotate(45, 552, 553)" opacity="0.48"></rect><rect width="169" height="3" x="134.5" y="280.5" rx="1.5" transform="rotate(45, 219, 282)" opacity="0.42"></rect><rect width="399" height="3" x="248.5" y="488.5" rx="1.5" transform="rotate(45, 448, 490)" opacity="0.71"></rect><rect width="239" height="3" x="276.5" y="105.5" rx="1.5" transform="rotate(45, 396, 107)" opacity="0.08"></rect><rect width="606" height="3" x="-174" y="221.5" rx="1.5" transform="rotate(45, 129, 223)" opacity="0.82"></rect><rect width="176" height="3" x="621" y="667.5" rx="1.5" transform="rotate(45, 709, 669)" opacity="0.16"></rect><rect width="269" height="3" x="-52.5" y="714.5" rx="1.5" transform="rotate(45, 82, 716)" opacity="0.32"></rect><rect width="354" height="3" x="387" y="696.5" rx="1.5" transform="rotate(45, 564, 698)" opacity="0.77"></rect><rect width="559" height="3" x="470.5" y="539.5" rx="1.5" transform="rotate(45, 750, 541)" opacity="0.21"></rect><rect width="473" height="3" x="-181.5" y="545.5" rx="1.5" transform="rotate(45, 55, 547)" opacity="0.88"></rect><rect width="289" height="3" x="612.5" y="48.5" rx="1.5" transform="rotate(45, 757, 50)" opacity="0.65"></rect><rect width="471" height="3" x="169.5" y="32.5" rx="1.5" transform="rotate(45, 405, 34)" opacity="0.31"></rect><rect width="306" height="3" x="158" y="265.5" rx="1.5" transform="rotate(45, 311, 267)" opacity="0.36"></rect><rect width="310" height="3" x="322" y="576.5" rx="1.5" transform="rotate(45, 477, 578)" opacity="0.95"></rect><rect width="177" height="3" x="296.5" y="558.5" rx="1.5" transform="rotate(45, 385, 560)" opacity="0.67"></rect><rect width="402" height="3" x="545" y="148.5" rx="1.5" transform="rotate(45, 746, 150)" opacity="0.17"></rect><rect width="399" height="3" x="362.5" y="146.5" rx="1.5" transform="rotate(45, 562, 148)" opacity="0.48"></rect></g></svg>