<svg xmlns="http://www.w3.org/2000/svg" version="1.1" xmlns:xlink="http://www.w3.org/1999/xlink" xmlns:svgjs="http://svgjs.dev/svgjs" viewBox="0 0 800 800"><circle r="7.5" cx="646" cy="87" fill="hsl(68, 50%, 50%)" opacity="0.81"></circle><circle r="7.5" cx="410" cy="243" stroke-width="2" stroke="hsl(68, 50%, 50%)" fill="none" opacity="0.52"></circle><circle r="9" cx="587" cy="462" stroke-width="2" stroke="hsl(40, 50%, 50%)" fill="none" opacity="0.57"></circle><circle r="7.5" cx="377" cy="342" stroke-width="2" stroke="hsl(78, 50%, 50%)" fill="none" opacity="0.75"></circle><circle r="11.5" cx="38" cy="637" stroke-width="2" stroke="hsl(72, 50%, 50%)" fill="none" opacity="0.28"></circle><circle r="8.5" cx="782" cy="784" stroke-width="2" stroke="hsl(124, 50%, 50%)" fill="none" opacity="0.10"></circle><circle r="6.5" cx="770" cy="144" stroke-width="2" stroke="hsl(113, 50%, 50%)" fill="none" opacity="0.45"></circle><circle r="9.5" cx="733" cy="280" stroke-width="2" stroke="hsl(82, 50%, 50%)" fill="none" opacity="0.71"></circle><circle r="5.5" cx="51" cy="354" stroke-width="2" stroke="hsl(74, 50%, 50%)" fill="none" opacity="0.35"></circle><circle r="11" cx="275" cy="758" stroke-width="2" stroke="hsl(131, 50%, 50%)" fill="none" opacity="0.85"></circle><circle r="4.5" cx="245" cy="78" fill="hsl(88, 50%, 50%)" opacity="0.49"></circle><circle r="8" cx="479" cy="284" fill="hsl(54, 50%, 50%)" opacity="0.48"></circle><circle r="7.5" cx="139" cy="157" stroke-width="2" stroke="hsl(93, 50%, 50%)" fill="none" opacity="1.00"></circle><circle r="8" cx="511" cy="704" fill="hsl(51, 50%, 50%)" opacity="0.66"></circle><circle r="4.5" cx="95" cy="299" stroke-width="2" stroke="hsl(87, 50%, 50%)" fill="none" opacity="0.65"></circle><circle r="8" cx="18" cy="68" fill="hsl(62, 50%, 50%)" opacity="0.55"></circle><circle r="13" cx="767" cy="646" fill="hsl(114, 50%, 50%)" opacity="0.19"></circle><circle r="7.5" cx="541" cy="502" fill="hsl(45, 50%, 50%)" opacity="0.70"></circle><circle r="11.5" cx="373" cy="190" stroke-width="2" stroke="hsl(84, 50%, 50%)" fill="none" opacity="0.16"></circle><circle r="12" cx="136" cy="355" stroke-width="2" stroke="hsl(106, 50%, 50%)" fill="none" opacity="0.85"></circle><circle r="12" cx="215" cy="174" stroke-width="2" stroke="hsl(130, 50%, 50%)" fill="none" opacity="0.73"></circle><circle r="7" cx="422" cy="688" stroke-width="2" stroke="hsl(65, 50%, 50%)" fill="none" opacity="0.32"></circle><circle r="7.5" cx="693" cy="15" fill="hsl(98, 50%, 50%)" opacity="0.22"></circle><circle r="6" cx="434" cy="499" stroke-width="2" stroke="hsl(62, 50%, 50%)" fill="none" opacity="0.11"></circle><circle r="8" cx="29" cy="203" fill="hsl(72, 50%, 50%)" opacity="0.95"></circle><circle r="10" cx="698" cy="416" stroke-width="2" stroke="hsl(57, 50%, 50%)" fill="none" opacity="0.38"></circle><circle r="9.5" cx="660" cy="676" fill="hsl(42, 50%, 50%)" opacity="0.62"></circle><circle r="11" cx="715" cy="166" stroke-width="2" stroke="hsl(74, 50%, 50%)" fill="none" opacity="0.16"></circle><circle r="4" cx="639" cy="131" fill="hsl(51, 50%, 50%)" opacity="0.52"></circle><circle r="8" cx="392" cy="145" fill="hsl(65, 50%, 50%)" opacity="0.88"></circle><circle r="9.5" cx="429" cy="180" fill="hsl(63, 50%, 50%)" opacity="0.54"></circle><circle r="12" cx="160" cy="276" fill="hsl(120, 50%, 50%)" opacity="0.78"></circle><circle r="8" cx="625" cy="215" fill="hsl(38, 50%, 50%)" opacity="0.69"></circle><circle r="9" cx="449" cy="247" fill="hsl(60, 50%, 50%)" opacity="0.25"></circle><circle r="3" cx="452" cy="783" stroke-width="2" stroke="hsl(58, 50%, 50%)" fill="none" opacity="0.78"></circle><circle r="13" cx="577" cy="28" stroke-width="2" stroke="hsl(92, 50%, 50%)" fill="none" opacity="0.34"></circle><circle r="5" cx="507" cy="224" fill="hsl(51, 50%, 50%)" opacity="0.35"></circle><circle r="9.5" cx="73" cy="201" fill="hsl(77, 50%, 50%)" opacity="1.00"></circle><circle r="9.5" cx="673" cy="303" fill="hsl(45, 50%, 50%)" opacity="0.36"></circle><circle r="9" cx="344" cy="544" stroke-width="2" stroke="hsl(97, 50%, 50%)" fill="none" opacity="0.36"></circle><circle r="6" cx="244" cy="465" fill="hsl(142, 50%, 50%)" opacity="0.75"></circle><circle r="7" cx="667" cy="463" fill="hsl(45, 50%, 50%)" opacity="0.36"></circle><circle r="5.5" cx="685" cy="128" stroke-width="2" stroke="hsl(59, 50%, 50%)" fill="none" opacity="0.93"></circle><circle r="10.5" cx="543" cy="75" fill="hsl(69, 50%, 50%)" opacity="0.47"></circle><circle r="8.5" cx="618" cy="312" fill="hsl(38, 50%, 50%)" opacity="0.23"></circle><circle r="7.5" cx="473" cy="28" fill="hsl(51, 50%, 50%)" opacity="0.33"></circle><circle r="10" cx="312" cy="781" stroke-width="2" stroke="hsl(119, 50%, 50%)" fill="none" opacity="0.20"></circle><circle r="6" cx="513" cy="784" stroke-width="2" stroke="hsl(49, 50%, 50%)" fill="none" opacity="0.83"></circle><circle r="4.5" cx="559" cy="726" fill="hsl(44, 50%, 50%)" opacity="0.24"></circle><circle r="5" cx="342" cy="786" stroke-width="2" stroke="hsl(97, 50%, 50%)" fill="none" opacity="0.74"></circle><circle r="11" cx="25" cy="254" stroke-width="2" stroke="hsl(72, 50%, 50%)" fill="none" opacity="0.69"></circle><circle r="8" cx="471" cy="192" stroke-width="2" stroke="hsl(56, 50%, 50%)" fill="none" opacity="0.61"></circle><circle r="9" cx="661" cy="769" stroke-width="2" stroke="hsl(42, 50%, 50%)" fill="none" opacity="0.86"></circle><circle r="8.5" cx="71" cy="255" fill="hsl(77, 50%, 50%)" opacity="0.65"></circle><circle r="6.5" cx="184" cy="130" stroke-width="2" stroke="hsl(102, 50%, 50%)" fill="none" opacity="0.66"></circle><circle r="8.5" cx="472" cy="497" stroke-width="2" stroke="hsl(56, 50%, 50%)" fill="none" opacity="0.84"></circle><circle r="4" cx="114" cy="306" fill="hsl(99, 50%, 50%)" opacity="0.11"></circle><circle r="17.5" cx="217" cy="649" stroke-width="2" stroke="hsl(142, 50%, 50%)" fill="none" opacity="0.91"></circle><circle r="6" cx="507" cy="193" fill="hsl(51, 50%, 50%)" opacity="0.43"></circle><circle r="11.5" cx="275" cy="526" stroke-width="2" stroke="hsl(136, 50%, 50%)" fill="none" opacity="0.97"></circle><circle r="8" cx="785" cy="711" stroke-width="2" stroke="hsl(124, 50%, 50%)" fill="none" opacity="0.83"></circle><circle r="9" cx="212" cy="519" fill="hsl(140, 50%, 50%)" opacity="0.36"></circle><circle r="7.5" cx="266" cy="490" fill="hsl(136, 50%, 50%)" opacity="0.72"></circle><circle r="11" cx="115" cy="228" fill="hsl(99, 50%, 50%)" opacity="0.83"></circle><circle r="9" cx="482" cy="397" stroke-width="2" stroke="hsl(54, 50%, 50%)" fill="none" opacity="0.90"></circle><circle r="8.5" cx="716" cy="754" fill="hsl(73, 50%, 50%)" opacity="0.72"></circle><circle r="4" cx="449" cy="749" stroke-width="2" stroke="hsl(60, 50%, 50%)" fill="none" opacity="0.81"></circle><circle r="9.5" cx="203" cy="483" stroke-width="2" stroke="hsl(140, 50%, 50%)" fill="none" opacity="0.62"></circle><circle r="5" cx="42" cy="102" fill="hsl(47, 50%, 50%)" opacity="0.89"></circle><circle r="9.5" cx="768" cy="755" fill="hsl(114, 50%, 50%)" opacity="0.81"></circle><circle r="4" cx="599" cy="522" stroke-width="2" stroke="hsl(39, 50%, 50%)" fill="none" opacity="0.46"></circle><circle r="6.5" cx="452" cy="659" fill="hsl(58, 50%, 50%)" opacity="0.43"></circle><circle r="6.5" cx="542" cy="201" fill="hsl(45, 50%, 50%)" opacity="0.97"></circle><circle r="14" cx="133" cy="430" stroke-width="2" stroke="hsl(106, 50%, 50%)" fill="none" opacity="0.81"></circle><circle r="7" cx="275" cy="56" fill="hsl(61, 50%, 50%)" opacity="0.44"></circle><circle r="7" cx="174" cy="155" fill="hsl(106, 50%, 50%)" opacity="0.80"></circle><circle r="6.5" cx="551" cy="166" fill="hsl(49, 50%, 50%)" opacity="0.43"></circle><circle r="8.5" cx="348" cy="740" stroke-width="2" stroke="hsl(97, 50%, 50%)" fill="none" opacity="0.95"></circle><circle r="11.5" cx="174" cy="26" stroke-width="2" stroke="hsl(94, 50%, 50%)" fill="none" opacity="0.69"></circle><circle r="12" cx="168" cy="553" fill="hsl(127, 50%, 50%)" opacity="0.82"></circle><circle r="6.5" cx="537" cy="750" fill="hsl(47, 50%, 50%)" opacity="0.17"></circle><circle r="7.5" cx="719" cy="453" stroke-width="2" stroke="hsl(73, 50%, 50%)" fill="none" opacity="0.28"></circle><circle r="9" cx="517" cy="461" stroke-width="2" stroke="hsl(49, 50%, 50%)" fill="none" opacity="0.53"></circle><circle r="6.5" cx="707" cy="50" stroke-width="2" stroke="hsl(88, 50%, 50%)" fill="none" opacity="0.62"></circle><circle r="9" cx="648" cy="574" stroke-width="2" stroke="hsl(39, 50%, 50%)" fill="none" opacity="0.51"></circle><circle r="9.5" cx="369" cy="574" fill="hsl(84, 50%, 50%)" opacity="0.33"></circle><circle r="6.5" cx="787" cy="17" fill="hsl(105, 50%, 50%)" opacity="0.51"></circle><circle r="7.5" cx="516" cy="111" fill="hsl(63, 50%, 50%)" opacity="0.87"></circle><circle r="7.5" cx="514" cy="308" stroke-width="2" stroke="hsl(49, 50%, 50%)" fill="none" opacity="0.97"></circle><circle r="15.5" cx="255" cy="271" stroke-width="2" stroke="hsl(140, 50%, 50%)" fill="none" opacity="0.32"></circle><circle r="7.5" cx="769" cy="253" stroke-width="2" stroke="hsl(114, 50%, 50%)" fill="none" opacity="0.70"></circle><circle r="3" cx="446" cy="767" stroke-width="2" stroke="hsl(60, 50%, 50%)" fill="none" opacity="0.65"></circle><circle r="7" cx="768" cy="174" fill="hsl(113, 50%, 50%)" opacity="0.13"></circle><circle r="11.5" cx="217" cy="333" fill="hsl(142, 50%, 50%)" opacity="0.71"></circle><circle r="9.5" cx="598" cy="79" fill="hsl(69, 50%, 50%)" opacity="0.92"></circle><circle r="5.5" cx="706" cy="109" fill="hsl(76, 50%, 50%)" opacity="0.90"></circle><circle r="7" cx="517" cy="156" fill="hsl(56, 50%, 50%)" opacity="0.52"></circle><circle r="8.5" cx="784" cy="65" fill="hsl(116, 50%, 50%)" opacity="0.12"></circle><circle r="5.5" cx="623" cy="538" fill="hsl(38, 50%, 50%)" opacity="0.84"></circle><circle r="9" cx="59" cy="19" stroke-width="2" stroke="hsl(100, 50%, 50%)" fill="none" opacity="0.76"></circle><circle r="8.5" cx="673" cy="518" fill="hsl(45, 50%, 50%)" opacity="0.73"></circle><circle r="5.5" cx="95" cy="105" stroke-width="2" stroke="hsl(59, 50%, 50%)" fill="none" opacity="0.90"></circle><circle r="6" cx="237" cy="501" fill="hsl(143, 50%, 50%)" opacity="0.68"></circle><circle r="4" cx="793" cy="117" fill="hsl(130, 50%, 50%)" opacity="0.39"></circle><circle r="8" cx="491" cy="76" stroke-width="2" stroke="hsl(60, 50%, 50%)" fill="none" opacity="0.29"></circle><circle r="5.5" cx="367" cy="786" stroke-width="2" stroke="hsl(84, 50%, 50%)" fill="none" opacity="0.91"></circle><circle r="5.5" cx="59" cy="325" stroke-width="2" stroke="hsl(74, 50%, 50%)" fill="none" opacity="0.83"></circle><circle r="9.5" cx="418" cy="545" fill="hsl(65, 50%, 50%)" opacity="0.60"></circle><circle r="8.5" cx="463" cy="548" fill="hsl(56, 50%, 50%)" opacity="0.62"></circle><circle r="7.5" cx="200" cy="63" stroke-width="2" stroke="hsl(90, 50%, 50%)" fill="none" opacity="0.27"></circle><circle r="7.5" cx="766" cy="203" fill="hsl(114, 50%, 50%)" opacity="0.57"></circle><circle r="6.5" cx="376" cy="759" stroke-width="2" stroke="hsl(78, 50%, 50%)" fill="none" opacity="0.41"></circle><circle r="6" cx="590" cy="372" stroke-width="2" stroke="hsl(39, 50%, 50%)" fill="none" opacity="0.27"></circle><circle r="5" cx="286" cy="364" fill="hsl(131, 50%, 50%)" opacity="0.16"></circle><circle r="5.5" cx="619" cy="784" fill="hsl(38, 50%, 50%)" opacity="0.76"></circle><circle r="6.5" cx="387" cy="388" stroke-width="2" stroke="hsl(78, 50%, 50%)" fill="none" opacity="0.43"></circle><circle r="8" cx="108" cy="180" fill="hsl(84, 50%, 50%)" opacity="0.73"></circle><circle r="6.5" cx="125" cy="727" stroke-width="2" stroke="hsl(99, 50%, 50%)" fill="none" opacity="0.18"></circle><circle r="8.5" cx="59" cy="61" fill="hsl(72, 50%, 50%)" opacity="0.24"></circle><circle r="5" cx="69" cy="99" fill="hsl(55, 50%, 50%)" opacity="0.67"></circle><circle r="12" cx="276" cy="316" fill="hsl(131, 50%, 50%)" opacity="0.85"></circle><circle r="7.5" cx="130" cy="763" fill="hsl(106, 50%, 50%)" opacity="0.53"></circle><circle r="5" cx="663" cy="149" fill="hsl(52, 50%, 50%)" opacity="0.19"></circle><circle r="6" cx="417" cy="367" stroke-width="2" stroke="hsl(65, 50%, 50%)" fill="none" opacity="0.44"></circle><circle r="12" cx="183" cy="450" fill="hsl(132, 50%, 50%)" opacity="0.50"></circle><circle r="9" cx="419" cy="298" stroke-width="2" stroke="hsl(65, 50%, 50%)" fill="none" opacity="0.50"></circle><circle r="8.5" cx="751" cy="703" stroke-width="2" stroke="hsl(103, 50%, 50%)" fill="none" opacity="0.69"></circle><circle r="8.5" cx="139" cy="107" fill="hsl(80, 50%, 50%)" opacity="0.44"></circle><circle r="14" cx="303" cy="238" stroke-width="2" stroke="hsl(119, 50%, 50%)" fill="none" opacity="0.68"></circle><circle r="4.5" cx="574" cy="514" fill="hsl(42, 50%, 50%)" opacity="0.87"></circle><circle r="9" cx="237" cy="534" fill="hsl(143, 50%, 50%)" opacity="0.50"></circle><circle r="7" cx="593" cy="750" stroke-width="2" stroke="hsl(39, 50%, 50%)" fill="none" opacity="0.10"></circle><circle r="11.5" cx="770" cy="448" fill="hsl(114, 50%, 50%)" opacity="0.20"></circle><circle r="10.5" cx="373" cy="643" fill="hsl(84, 50%, 50%)" opacity="0.49"></circle><circle r="9.5" cx="612" cy="646" fill="hsl(38, 50%, 50%)" opacity="0.52"></circle><circle r="5.5" cx="438" cy="349" stroke-width="2" stroke="hsl(60, 50%, 50%)" fill="none" opacity="0.25"></circle><circle r="9.5" cx="338" cy="275" fill="hsl(97, 50%, 50%)" opacity="0.90"></circle><circle r="10" cx="31" cy="584" fill="hsl(72, 50%, 50%)" opacity="0.37"></circle><circle r="12" cx="247" cy="703" stroke-width="2" stroke="hsl(142, 50%, 50%)" fill="none" opacity="0.62"></circle><circle r="6" cx="684" cy="67" fill="hsl(78, 50%, 50%)" opacity="0.80"></circle><circle r="4.5" cx="399" cy="24" stroke-width="2" stroke="hsl(18, 50%, 50%)" fill="none" opacity="0.85"></circle><circle r="7" cx="574" cy="334" fill="hsl(42, 50%, 50%)" opacity="0.24"></circle><circle r="10.5" cx="238" cy="133" fill="hsl(113, 50%, 50%)" opacity="0.97"></circle><circle r="6" cx="403" cy="775" fill="hsl(68, 50%, 50%)" opacity="0.87"></circle><circle r="7.5" cx="636" cy="260" stroke-width="2" stroke="hsl(38, 50%, 50%)" fill="none" opacity="0.15"></circle><circle r="9.5" cx="518" cy="22" fill="hsl(81, 50%, 50%)" opacity="0.84"></circle><circle r="9" cx="304" cy="348" fill="hsl(119, 50%, 50%)" opacity="0.26"></circle><circle r="9" cx="280" cy="160" stroke-width="2" stroke="hsl(118, 50%, 50%)" fill="none" opacity="0.21"></circle><circle r="9.5" cx="135" cy="695" fill="hsl(106, 50%, 50%)" opacity="0.71"></circle><circle r="10" cx="236" cy="783" stroke-width="2" stroke="hsl(143, 50%, 50%)" fill="none" opacity="0.25"></circle><circle r="8.5" cx="45" cy="542" fill="hsl(72, 50%, 50%)" opacity="0.94"></circle><circle r="4.5" cx="74" cy="130" fill="hsl(50, 50%, 50%)" opacity="0.73"></circle><circle r="11" cx="346" cy="372" fill="hsl(97, 50%, 50%)" opacity="0.92"></circle><circle r="10.5" cx="302" cy="695" fill="hsl(119, 50%, 50%)" opacity="0.57"></circle><circle r="10.5" cx="308" cy="736" fill="hsl(119, 50%, 50%)" opacity="0.21"></circle><circle r="12.5" cx="300" cy="570" fill="hsl(119, 50%, 50%)" opacity="0.24"></circle><circle r="7.5" cx="407" cy="596" fill="hsl(68, 50%, 50%)" opacity="0.78"></circle><circle r="9.5" cx="40" cy="777" stroke-width="2" stroke="hsl(72, 50%, 50%)" fill="none" opacity="0.68"></circle><circle r="5.5" cx="557" cy="678" stroke-width="2" stroke="hsl(44, 50%, 50%)" fill="none" opacity="0.19"></circle><circle r="9" cx="297" cy="487" stroke-width="2" stroke="hsl(126, 50%, 50%)" fill="none" opacity="0.71"></circle><circle r="10" cx="328" cy="507" stroke-width="2" stroke="hsl(105, 50%, 50%)" fill="none" opacity="0.17"></circle><circle r="5.5" cx="305" cy="23" fill="hsl(30, 50%, 50%)" opacity="0.94"></circle><circle r="7.5" cx="262" cy="368" fill="hsl(140, 50%, 50%)" opacity="0.18"></circle><circle r="7" cx="268" cy="19" fill="hsl(50, 50%, 50%)" opacity="0.70"></circle><circle r="5.5" cx="533" cy="656" stroke-width="2" stroke="hsl(47, 50%, 50%)" fill="none" opacity="0.97"></circle><circle r="6" cx="321" cy="145" fill="hsl(96, 50%, 50%)" opacity="0.62"></circle><circle r="5.5" cx="14" cy="111" stroke-width="2" stroke="hsl(44, 50%, 50%)" fill="none" opacity="0.99"></circle><circle r="10.5" cx="368" cy="243" stroke-width="2" stroke="hsl(84, 50%, 50%)" fill="none" opacity="0.92"></circle><circle r="3.5" cx="553" cy="705" stroke-width="2" stroke="hsl(44, 50%, 50%)" fill="none" opacity="0.13"></circle><circle r="9.5" cx="733" cy="224" stroke-width="2" stroke="hsl(82, 50%, 50%)" fill="none" opacity="0.91"></circle><circle r="5" cx="338" cy="27" fill="hsl(22, 50%, 50%)" opacity="0.70"></circle><circle r="8" cx="731" cy="18" fill="hsl(99, 50%, 50%)" opacity="0.88"></circle><circle r="6" cx="113" cy="263" fill="hsl(99, 50%, 50%)" opacity="0.81"></circle><circle r="4.5" cx="545" cy="390" fill="hsl(45, 50%, 50%)" opacity="0.68"></circle><circle r="6" cx="12" cy="757" stroke-width="2" stroke="hsl(74, 50%, 50%)" fill="none" opacity="0.89"></circle><circle r="6.5" cx="114" cy="132" stroke-width="2" stroke="hsl(71, 50%, 50%)" fill="none" opacity="0.14"></circle><circle r="7.5" cx="757" cy="89" stroke-width="2" stroke="hsl(105, 50%, 50%)" fill="none" opacity="0.66"></circle><circle r="11.5" cx="66" cy="441" fill="hsl(77, 50%, 50%)" opacity="0.32"></circle><circle r="11" cx="228" cy="738" fill="hsl(143, 50%, 50%)" opacity="0.59"></circle><circle r="12" cx="253" cy="569" fill="hsl(140, 50%, 50%)" opacity="0.40"></circle><circle r="9" cx="642" cy="419" stroke-width="2" stroke="hsl(39, 50%, 50%)" fill="none" opacity="0.29"></circle><circle r="6" cx="399" cy="417" stroke-width="2" stroke="hsl(73, 50%, 50%)" fill="none" opacity="0.53"></circle><circle r="7" cx="448" cy="74" stroke-width="2" stroke="hsl(43, 50%, 50%)" fill="none" opacity="0.78"></circle><circle r="6.5" cx="203" cy="109" stroke-width="2" stroke="hsl(101, 50%, 50%)" fill="none" opacity="0.74"></circle><circle r="7.5" cx="379" cy="302" stroke-width="2" stroke="hsl(78, 50%, 50%)" fill="none" opacity="0.87"></circle><circle r="5" cx="394" cy="683" stroke-width="2" stroke="hsl(73, 50%, 50%)" fill="none" opacity="0.83"></circle><circle r="15.5" cx="182" cy="697" fill="hsl(132, 50%, 50%)" opacity="0.14"></circle><circle r="6" cx="433" cy="729" fill="hsl(62, 50%, 50%)" opacity="0.64"></circle><circle r="4" cx="239" cy="482" stroke-width="2" stroke="hsl(142, 50%, 50%)" fill="none" opacity="0.34"></circle><circle r="13" cx="176" cy="230" stroke-width="2" stroke="hsl(132, 50%, 50%)" fill="none" opacity="0.35"></circle><circle r="6" cx="763" cy="116" fill="hsl(113, 50%, 50%)" opacity="0.30"></circle><circle r="7" cx="543" cy="424" stroke-width="2" stroke="hsl(45, 50%, 50%)" fill="none" opacity="0.94"></circle><circle r="4" cx="593" cy="281" stroke-width="2" stroke="hsl(39, 50%, 50%)" fill="none" opacity="0.46"></circle><circle r="7" cx="730" cy="508" fill="hsl(82, 50%, 50%)" opacity="0.10"></circle><circle r="9.5" cx="435" cy="124" stroke-width="2" stroke="hsl(54, 50%, 50%)" fill="none" opacity="0.25"></circle><circle r="6.5" cx="383" cy="108" stroke-width="2" stroke="hsl(53, 50%, 50%)" fill="none" opacity="0.31"></circle><circle r="7" cx="699" cy="485" stroke-width="2" stroke="hsl(57, 50%, 50%)" fill="none" opacity="1.00"></circle><circle r="6" cx="433" cy="25" stroke-width="2" stroke="hsl(32, 50%, 50%)" fill="none" opacity="0.54"></circle><circle r="7.5" cx="53" cy="292" fill="hsl(74, 50%, 50%)" opacity="0.84"></circle><circle r="14" cx="158" cy="504" fill="hsl(120, 50%, 50%)" opacity="0.57"></circle><circle r="4" cx="540" cy="365" stroke-width="2" stroke="hsl(45, 50%, 50%)" fill="none" opacity="0.49"></circle><circle r="6" cx="784" cy="298" fill="hsl(124, 50%, 50%)" opacity="0.50"></circle><circle r="7" cx="278" cy="124" stroke-width="2" stroke="hsl(98, 50%, 50%)" fill="none" opacity="0.60"></circle><circle r="7" cx="90" cy="328" stroke-width="2" stroke="hsl(87, 50%, 50%)" fill="none" opacity="0.83"></circle><circle r="10.5" cx="177" cy="321" stroke-width="2" stroke="hsl(132, 50%, 50%)" fill="none" opacity="0.37"></circle><circle r="9" cx="464" cy="442" fill="hsl(56, 50%, 50%)" opacity="0.45"></circle><circle r="7" cx="634" cy="481" stroke-width="2" stroke="hsl(38, 50%, 50%)" fill="none" opacity="0.88"></circle><circle r="9" cx="303" cy="394" stroke-width="2" stroke="hsl(119, 50%, 50%)" fill="none" opacity="0.93"></circle><circle r="12" cx="210" cy="275" fill="hsl(140, 50%, 50%)" opacity="0.99"></circle><circle r="5.5" cx="664" cy="53" stroke-width="2" stroke="hsl(81, 50%, 50%)" fill="none" opacity="0.14"></circle><circle r="5.5" cx="558" cy="628" stroke-width="2" stroke="hsl(44, 50%, 50%)" fill="none" opacity="0.49"></circle><circle r="12" cx="766" cy="400" fill="hsl(114, 50%, 50%)" opacity="0.40"></circle><circle r="10" cx="232" cy="437" stroke-width="2" stroke="hsl(143, 50%, 50%)" fill="none" opacity="0.21"></circle><circle r="8.5" cx="566" cy="127" fill="hsl(55, 50%, 50%)" opacity="0.30"></circle><circle r="8.5" cx="224" cy="20" fill="hsl(78, 50%, 50%)" opacity="0.50"></circle><circle r="8" cx="380" cy="451" fill="hsl(78, 50%, 50%)" opacity="0.76"></circle><circle r="12.5" cx="109" cy="659" fill="hsl(93, 50%, 50%)" opacity="0.88"></circle><circle r="7.5" cx="33" cy="685" fill="hsl(72, 50%, 50%)" opacity="0.26"></circle><circle r="8.5" cx="319" cy="460" stroke-width="2" stroke="hsl(112, 50%, 50%)" fill="none" opacity="0.96"></circle><circle r="4" cx="582" cy="259" fill="hsl(40, 50%, 50%)" opacity="0.51"></circle><circle r="6" cx="428" cy="456" fill="hsl(62, 50%, 50%)" opacity="0.43"></circle><circle r="9.5" cx="746" cy="359" stroke-width="2" stroke="hsl(92, 50%, 50%)" fill="none" opacity="0.57"></circle><circle r="6.5" cx="511" cy="628" fill="hsl(51, 50%, 50%)" opacity="0.69"></circle><circle r="9" cx="589" cy="598" fill="hsl(39, 50%, 50%)" opacity="0.16"></circle><circle r="10" cx="262" cy="407" fill="hsl(140, 50%, 50%)" opacity="0.75"></circle><circle r="4.5" cx="370" cy="31" stroke-width="2" stroke="hsl(19, 50%, 50%)" fill="none" opacity="0.37"></circle><circle r="11" cx="684" cy="617" fill="hsl(50, 50%, 50%)" opacity="0.81"></circle><circle r="5.5" cx="530" cy="340" stroke-width="2" stroke="hsl(47, 50%, 50%)" fill="none" opacity="0.23"></circle><circle r="13" cx="105" cy="507" fill="hsl(93, 50%, 50%)" opacity="0.79"></circle><circle r="10" cx="717" cy="667" fill="hsl(73, 50%, 50%)" opacity="0.36"></circle><circle r="9.5" cx="480" cy="600" stroke-width="2" stroke="hsl(54, 50%, 50%)" fill="none" opacity="0.15"></circle><circle r="5.5" cx="301" cy="127" stroke-width="2" stroke="hsl(95, 50%, 50%)" fill="none" opacity="0.48"></circle><circle r="6" cx="721" cy="91" fill="hsl(84, 50%, 50%)" opacity="0.73"></circle><circle r="7.5" cx="538" cy="258" fill="hsl(45, 50%, 50%)" opacity="0.81"></circle><circle r="7" cx="749" cy="480" fill="hsl(92, 50%, 50%)" opacity="0.94"></circle><circle r="7" cx="59" cy="732" stroke-width="2" stroke="hsl(74, 50%, 50%)" fill="none" opacity="0.20"></circle><circle r="7.5" cx="268" cy="447" stroke-width="2" stroke="hsl(136, 50%, 50%)" fill="none" opacity="0.60"></circle><circle r="15.5" cx="103" cy="592" fill="hsl(93, 50%, 50%)" opacity="0.18"></circle><circle r="10" cx="20" cy="320" stroke-width="2" stroke="hsl(72, 50%, 50%)" fill="none" opacity="0.48"></circle><circle r="8.5" cx="114" cy="17" stroke-width="2" stroke="hsl(102, 50%, 50%)" fill="none" opacity="0.20"></circle><circle r="10.5" cx="326" cy="183" fill="hsl(102, 50%, 50%)" opacity="0.59"></circle><circle r="8.5" cx="344" cy="692" fill="hsl(97, 50%, 50%)" opacity="0.96"></circle><circle r="9" cx="783" cy="335" stroke-width="2" stroke="hsl(124, 50%, 50%)" fill="none" opacity="0.38"></circle><circle r="7.5" cx="397" cy="732" fill="hsl(73, 50%, 50%)" opacity="0.77"></circle><circle r="7.5" cx="588" cy="179" fill="hsl(41, 50%, 50%)" opacity="0.67"></circle><circle r="6" cx="567" cy="783" fill="hsl(42, 50%, 50%)" opacity="0.39"></circle><circle r="10.5" cx="91" cy="395" stroke-width="2" stroke="hsl(87, 50%, 50%)" fill="none" opacity="0.81"></circle><circle r="5" cx="473" cy="787" stroke-width="2" stroke="hsl(56, 50%, 50%)" fill="none" opacity="0.26"></circle><circle r="7.5" cx="95" cy="51" fill="hsl(78, 50%, 50%)" opacity="0.81"></circle><circle r="6" cx="561" cy="297" stroke-width="2" stroke="hsl(44, 50%, 50%)" fill="none" opacity="0.70"></circle><circle r="10" cx="227" cy="370" fill="hsl(143, 50%, 50%)" opacity="0.73"></circle><circle r="4.5" cx="428" cy="789" fill="hsl(62, 50%, 50%)" opacity="0.14"></circle><circle r="3.5" cx="7" cy="689" stroke-width="2" stroke="hsl(74, 50%, 50%)" fill="none" opacity="0.20"></circle><circle r="5.5" cx="79" cy="361" stroke-width="2" stroke="hsl(81, 50%, 50%)" fill="none" opacity="0.64"></circle><circle r="12.5" cx="175" cy="390" stroke-width="2" stroke="hsl(127, 50%, 50%)" fill="none" opacity="0.53"></circle><circle r="11" cx="332" cy="613" fill="hsl(105, 50%, 50%)" opacity="0.79"></circle><circle r="6" cx="614" cy="117" stroke-width="2" stroke="hsl(54, 50%, 50%)" fill="none" opacity="0.98"></circle><circle r="12" cx="190" cy="756" stroke-width="2" stroke="hsl(137, 50%, 50%)" fill="none" opacity="0.18"></circle><circle r="15" cx="763" cy="590" stroke-width="2" stroke="hsl(114, 50%, 50%)" fill="none" opacity="0.72"></circle><circle r="9" cx="143" cy="57" stroke-width="2" stroke="hsl(87, 50%, 50%)" fill="none" opacity="0.25"></circle><circle r="8.5" cx="292" cy="431" stroke-width="2" stroke="hsl(126, 50%, 50%)" fill="none" opacity="0.57"></circle><circle r="6.5" cx="132" cy="318" fill="hsl(106, 50%, 50%)" opacity="0.66"></circle><circle r="5.5" cx="724" cy="787" stroke-width="2" stroke="hsl(73, 50%, 50%)" fill="none" opacity="0.30"></circle><circle r="5" cx="24" cy="149" stroke-width="2" stroke="hsl(43, 50%, 50%)" fill="none" opacity="0.76"></circle><circle r="9.5" cx="161" cy="777" stroke-width="2" stroke="hsl(120, 50%, 50%)" fill="none" opacity="0.56"></circle><circle r="6.5" cx="763" cy="26" fill="hsl(105, 50%, 50%)" opacity="0.40"></circle><circle r="5" cx="234" cy="102" fill="hsl(102, 50%, 50%)" opacity="0.38"></circle><circle r="9" cx="319" cy="651" stroke-width="2" stroke="hsl(112, 50%, 50%)" fill="none" opacity="0.84"></circle><circle r="5" cx="220" cy="83" stroke-width="2" stroke="hsl(92, 50%, 50%)" fill="none" opacity="0.81"></circle><circle r="10" cx="660" cy="364" fill="hsl(42, 50%, 50%)" opacity="0.34"></circle><circle r="13.5" cx="210" cy="581" stroke-width="2" stroke="hsl(140, 50%, 50%)" fill="none" opacity="0.62"></circle><circle r="5" cx="53" cy="145" fill="hsl(48, 50%, 50%)" opacity="0.81"></circle><circle r="8" cx="637" cy="722" stroke-width="2" stroke="hsl(38, 50%, 50%)" fill="none" opacity="0.53"></circle><circle r="7.5" cx="490" cy="352" fill="hsl(53, 50%, 50%)" opacity="0.35"></circle><circle r="6.5" cx="29" cy="722" fill="hsl(72, 50%, 50%)" opacity="0.88"></circle><circle r="8" cx="550" cy="567" stroke-width="2" stroke="hsl(44, 50%, 50%)" fill="none" opacity="0.29"></circle><circle r="6.5" cx="598" cy="411" fill="hsl(39, 50%, 50%)" opacity="0.81"></circle><circle r="7.5" cx="427" cy="629" fill="hsl(62, 50%, 50%)" opacity="0.56"></circle><circle r="3.5" cx="793" cy="170" fill="hsl(134, 50%, 50%)" opacity="0.93"></circle><circle r="9" cx="42" cy="497" fill="hsl(72, 50%, 50%)" opacity="0.88"></circle><circle r="4" cx="105" cy="792" stroke-width="2" stroke="hsl(93, 50%, 50%)" fill="none" opacity="0.88"></circle><circle r="5.5" cx="780" cy="276" stroke-width="2" stroke="hsl(124, 50%, 50%)" fill="none" opacity="0.30"></circle><circle r="6.5" cx="402" cy="481" fill="hsl(68, 50%, 50%)" opacity="0.55"></circle><circle r="9.5" cx="269" cy="190" stroke-width="2" stroke="hsl(136, 50%, 50%)" fill="none" opacity="0.67"></circle><circle r="7" cx="598" cy="702" stroke-width="2" stroke="hsl(39, 50%, 50%)" fill="none" opacity="0.22"></circle><circle r="14" cx="266" cy="616" stroke-width="2" stroke="hsl(136, 50%, 50%)" fill="none" opacity="0.96"></circle><circle r="6.5" cx="323" cy="110" stroke-width="2" stroke="hsl(75, 50%, 50%)" fill="none" opacity="0.39"></circle><circle r="5.5" cx="743" cy="48" fill="hsl(100, 50%, 50%)" opacity="0.65"></circle><circle r="6.5" cx="499" cy="254" fill="hsl(53, 50%, 50%)" opacity="0.52"></circle><circle r="7.5" cx="353" cy="135" fill="hsl(72, 50%, 50%)" opacity="0.99"></circle><circle r="6" cx="111" cy="79" stroke-width="2" stroke="hsl(69, 50%, 50%)" fill="none" opacity="0.45"></circle><circle r="7" cx="355" cy="81" fill="hsl(45, 50%, 50%)" opacity="0.91"></circle><circle r="6.5" cx="127" cy="283" fill="hsl(106, 50%, 50%)" opacity="0.75"></circle><circle r="5" cx="731" cy="68" fill="hsl(94, 50%, 50%)" opacity="0.33"></circle><circle r="8" cx="313" cy="73" stroke-width="2" stroke="hsl(51, 50%, 50%)" fill="none" opacity="0.94"></circle><circle r="5" cx="88" cy="152" fill="hsl(65, 50%, 50%)" opacity="0.74"></circle><circle r="9" cx="19" cy="24" stroke-width="2" stroke="hsl(100, 50%, 50%)" fill="none" opacity="0.35"></circle><circle r="7" cx="270" cy="92" stroke-width="2" stroke="hsl(88, 50%, 50%)" fill="none" opacity="0.16"></circle><circle r="8.5" cx="378" cy="504" stroke-width="2" stroke="hsl(78, 50%, 50%)" fill="none" opacity="0.67"></circle><circle r="11.5" cx="714" cy="551" stroke-width="2" stroke="hsl(73, 50%, 50%)" fill="none" opacity="0.77"></circle><circle r="8.5" cx="342" cy="326" stroke-width="2" stroke="hsl(97, 50%, 50%)" fill="none" opacity="0.17"></circle><circle r="8.5" cx="312" cy="300" stroke-width="2" stroke="hsl(119, 50%, 50%)" fill="none" opacity="0.27"></circle><circle r="8.5" cx="74" cy="694" stroke-width="2" stroke="hsl(77, 50%, 50%)" fill="none" opacity="0.22"></circle><circle r="9" cx="481" cy="134" stroke-width="2" stroke="hsl(59, 50%, 50%)" fill="none" opacity="0.95"></circle><circle r="14" cx="236" cy="218" stroke-width="2" stroke="hsl(143, 50%, 50%)" fill="none" opacity="0.91"></circle><circle r="9" cx="507" cy="541" stroke-width="2" stroke="hsl(51, 50%, 50%)" fill="none" opacity="0.99"></circle><circle r="6.5" cx="787" cy="227" stroke-width="2" stroke="hsl(124, 50%, 50%)" fill="none" opacity="0.75"></circle><circle r="17.5" cx="163" cy="622" stroke-width="2" stroke="hsl(127, 50%, 50%)" fill="none" opacity="0.73"></circle><circle r="9" cx="167" cy="190" fill="hsl(127, 50%, 50%)" opacity="0.53"></circle><circle r="11" cx="23" cy="385" fill="hsl(72, 50%, 50%)" opacity="0.89"></circle><circle r="5" cx="84" cy="777" stroke-width="2" stroke="hsl(81, 50%, 50%)" fill="none" opacity="0.87"></circle><circle r="9" cx="16" cy="459" stroke-width="2" stroke="hsl(72, 50%, 50%)" fill="none" opacity="0.62"></circle><circle r="10.5" cx="684" cy="227" stroke-width="2" stroke="hsl(50, 50%, 50%)" fill="none" opacity="0.77"></circle><circle r="7" cx="574" cy="227" stroke-width="2" stroke="hsl(42, 50%, 50%)" fill="none" opacity="0.90"></circle><circle r="8.5" cx="174" cy="88" fill="hsl(89, 50%, 50%)" opacity="0.61"></circle><circle r="12.5" cx="776" cy="524" stroke-width="2" stroke="hsl(124, 50%, 50%)" fill="none" opacity="0.76"></circle><circle r="11" cx="639" cy="25" stroke-width="2" stroke="hsl(92, 50%, 50%)" fill="none" opacity="0.57"></circle><circle r="7.5" cx="484" cy="671" fill="hsl(54, 50%, 50%)" opacity="0.10"></circle><circle r="5" cx="12" cy="176" stroke-width="2" stroke="hsl(63, 50%, 50%)" fill="none" opacity="0.21"></circle><circle r="7.5" cx="90" cy="746" stroke-width="2" stroke="hsl(87, 50%, 50%)" fill="none" opacity="0.48"></circle><circle r="10.5" cx="215" cy="405" stroke-width="2" stroke="hsl(142, 50%, 50%)" fill="none" opacity="0.77"></circle><circle r="11" cx="336" cy="423" stroke-width="2" stroke="hsl(105, 50%, 50%)" fill="none" opacity="0.65"></circle><circle r="8.5" cx="697" cy="715" fill="hsl(57, 50%, 50%)" opacity="0.32"></circle><circle r="12.5" cx="272" cy="663" fill="hsl(136, 50%, 50%)" opacity="0.65"></circle><circle r="7.5" cx="491" cy="750" stroke-width="2" stroke="hsl(53, 50%, 50%)" fill="none" opacity="0.49"></circle><circle r="6.5" cx="628" cy="164" fill="hsl(42, 50%, 50%)" opacity="0.34"></circle><circle r="6" cx="374" cy="703" stroke-width="2" stroke="hsl(84, 50%, 50%)" fill="none" opacity="0.14"></circle><circle r="7.5" cx="466" cy="711" stroke-width="2" stroke="hsl(56, 50%, 50%)" fill="none" opacity="0.43"></circle><circle r="8.5" cx="719" cy="327" fill="hsl(73, 50%, 50%)" opacity="0.45"></circle><circle r="8" cx="459" cy="322" fill="hsl(58, 50%, 50%)" opacity="0.15"></circle><circle r="7" cx="405" cy="76" fill="hsl(40, 50%, 50%)" opacity="0.10"></circle><circle r="4" cx="86" cy="284" fill="hsl(81, 50%, 50%)" opacity="0.97"></circle><circle r="6" cx="235" cy="53" stroke-width="2" stroke="hsl(81, 50%, 50%)" fill="none" opacity="0.55"></circle></svg>