<svg id="eiWd02Xovkj1" xmlns="http://www.w3.org/2000/svg" xmlns:xlink="http://www.w3.org/1999/xlink" viewBox="0 0 500 500" shape-rendering="geometricPrecision" text-rendering="geometricPrecision"><g transform="matrix(0 1-1 0 738.063764 272.967665)"><path style="mix-blend-mode:multiply" d="M20.025572,124.319034q9.593156,106.824818-162.873373,87.470745" transform="matrix(-.866025 0.5-.5-.866025 169.293386 509.493981)" opacity="0.25" fill="none" stroke="#3f5787" stroke-width="1.8"/><path style="mix-blend-mode:multiply" d="M20.025572,124.319034q9.593156,106.824818-162.873373,87.470745" transform="matrix(-.510298 0.294621-.454213-.78672 197.649107 489.851111)" opacity="0.25" fill="none" stroke="#3f5787" stroke-width="1.8"/><path style="mix-blend-mode:multiply" d="M34.3043,129.78281q-49.252497,78.005768-177.152101,82.006969" transform="matrix(-.866025 0.5-.5-.866025 138.899802 466.493981)" opacity="0.25" fill="none" stroke="#3f5787" stroke-width="1.8"/><path style="mix-blend-mode:multiply" d="M-5.811132,91.043981q93.505059,77.21251-101.421551,198.874645" opacity="0.25" fill="none" stroke="#3f5787" stroke-width="1.8"/><path style="mix-blend-mode:multiply" d="M-5.811132,91.043981q93.505059,77.21251-101.421551,198.874645" transform="translate(49 9)" opacity="0.25" fill="none" stroke="#3f5787" stroke-width="1.8"/><rect width="382.613048" height="276.821422" rx="124" ry="124" transform="matrix(.707107 0.707107-.707107 0.707107-26.854941 19.370345)" opacity="0.8" fill="#ffd180" stroke-width="0"/></g></svg>
